<?xml version="1.0" encoding="UTF-8" standalone="no"?>
<!-- Created with Inkscape (http://www.inkscape.org/) -->

<svg
   width="192"
   height="192"
   viewBox="0 0 60.386321 60.386321"
   version="1.1"
   id="svg1"
   xml:space="preserve"
   inkscape:version="1.4.2 (ebf0e940, 2025-05-08)"
   sodipodi:docname="Favicon_vector.svg"
   xmlns:inkscape="http://www.inkscape.org/namespaces/inkscape"
   xmlns:sodipodi="http://sodipodi.sourceforge.net/DTD/sodipodi-0.dtd"
   xmlns="http://www.w3.org/2000/svg"
   xmlns:svg="http://www.w3.org/2000/svg"><sodipodi:namedview
     id="namedview1"
     pagecolor="#ffffff"
     bordercolor="#000000"
     borderopacity="0.25"
     inkscape:showpageshadow="2"
     inkscape:pageopacity="0.0"
     inkscape:pagecheckerboard="0"
     inkscape:deskcolor="#d1d1d1"
     inkscape:document-units="mm"
     inkscape:zoom="1.1756535"
     inkscape:cx="258.57959"
     inkscape:cy="39.127175"
     inkscape:window-width="1360"
     inkscape:window-height="835"
     inkscape:window-x="0"
     inkscape:window-y="25"
     inkscape:window-maximized="0"
     inkscape:current-layer="layer1" /><defs
     id="defs1"><inkscape:path-effect
       effect="mirror_symmetry"
       start_point="511.30605,186.18456"
       end_point="511.30605,837.20941"
       center_point="511.30605,511.69699"
       id="path-effect9"
       is_visible="true"
       lpeversion="1.2"
       lpesatellites=""
       mode="free"
       discard_orig_path="false"
       fuse_paths="true"
       oposite_fuse="false"
       split_items="false"
       split_open="false"
       link_styles="false" /><inkscape:path-effect
       effect="fillet_chamfer"
       id="path-effect2"
       is_visible="true"
       lpeversion="1"
       nodesatellites_param="F,0,0,1,0,0,0,1 @ F,0,0,1,0,0,0,1 @ F,0,0,1,0,0,0,1 @ F,0,0,1,0,0,0,1 @ F,0,0,1,0,0,0,1 @ F,0,0,1,0,0,0,1 @ F,0,0,1,0,0,0,1 @ F,0,0,1,0,0,0,1 @ F,0,0,1,0,0,0,1 @ F,0,0,1,0,0,0,1 @ F,0,0,1,0,0,0,1"
       radius="0"
       unit="px"
       method="auto"
       mode="F"
       chamfer_steps="1"
       flexible="false"
       use_knot_distance="true"
       apply_no_radius="true"
       apply_with_radius="true"
       only_selected="false"
       hide_knots="false" /></defs><g
     inkscape:label="Layer 1"
     inkscape:groupmode="layer"
     id="layer1"><text
       xml:space="preserve"
       style="font-style:normal;font-variant:normal;font-weight:normal;font-stretch:normal;font-size:60.3863px;line-height:0;font-family:Maragsa;-inkscape-font-specification:'Maragsa, Normal';font-variant-ligatures:normal;font-variant-caps:normal;font-variant-numeric:normal;font-variant-east-asian:normal;text-align:center;writing-mode:lr-tb;direction:ltr;text-anchor:middle;opacity:1;fill:#6b676f;fill-opacity:1;stroke-width:1.02823"
       x="29.649416"
       y="50.725506"
       id="text1"><tspan
         sodipodi:role="line"
         id="tspan1"
         style="font-style:normal;font-variant:normal;font-weight:normal;font-stretch:normal;font-size:60.3863px;font-family:Maragsa;-inkscape-font-specification:'Maragsa, Normal';font-variant-ligatures:normal;font-variant-caps:normal;font-variant-numeric:normal;font-variant-east-asian:normal;fill:#6b676f;fill-opacity:1;stroke-width:1.02823"
         x="29.649416"
         y="50.725506">I</tspan></text><g
       id="g1"
       transform="matrix(0.04064848,0,0,0.03995174,101.11665,-27.394352)"><g
         id="g2"
         transform="translate(-2277.1403,1064.6808)"><path
           d="m 555,631.99686 c -20.59006,4.73272 -21.72175,-20.96783 -18.23665,-34.74079 6.34615,-30.80167 24.19879,-58.98726 50.33136,-76.73676 16.6961,-12.70717 38.0593,-25.43095 59.59761,-18.52094 4.86149,0.95295 1.78452,-6.63632 2.31026,-15.83882 V 368.99972 c 0.43047,-22.26881 0.33549,-44.7909 0.96224,-67.17092 -0.21687,-26.31089 1.25657,-52.56375 2.03832,-78.8288 14.08429,-9.36994 15.94992,3.85111 31.71259,26.06559 16.19214,22.41269 25.70047,32.15162 42.36233,49.84251 15.26878,14.1328 29.05203,31.03865 32.58938,52.13667 5.99284,31.12092 2.72624,66.67522 -19.69494,90.89052 -3.74813,5.51643 -20.89894,16.39451 -21.18875,11.51305 15.54498,-16.02014 17.69325,-40.274 17.23955,-61.53772 -0.79402,-25.78745 -28.30988,-55.59418 -37.78108,-64.12654 -9.4712,-8.53236 -22.74513,-20.93571 -22.25848,-1.02435 -1.83378,54.05218 -0.64928,108.16538 -0.98688,162.25035 -0.46633,13.85863 0.95625,27.97837 -0.75402,41.66503 -3.30626,15.2693 -10.78672,29.33174 -18.33696,42.90853 -18.41288,25.139 -46.05124,42.53451 -75.31179,52.50464 -8.06422,2.66822 -16.47236,3.60259 -24.59409,5.90858 z"
           fill="#3c2358"
           stroke="none"
           id="path1"
           sodipodi:nodetypes="cccccccccccccczcccccc" /><path
           d="m 516,644.99686 c -17.8279,1.25769 -28.88177,-16.23045 -39.45056,-27.8401 -32.26456,-41.5334 -50.70364,-93.94959 -49.56767,-146.62272 -1.4938,-36.23979 4.34423,-72.83542 19.20073,-106.05702 15.42861,-34.58611 35.56892,-67.81327 63.8175,-93.47388 15.34905,9.84289 25.12401,26.08071 36.06544,40.25935 25.39731,37.29113 46.36191,79.84732 47.92322,125.72931 1.74445,13.70332 1.19262,27.79189 1.24466,41.46642 1.66313,15.58798 -8.53096,27.04335 -20.87621,34.71914 -22.62073,19.35996 -41.63072,44.88491 -46.63807,74.85401 -4.28631,16.44409 -2.16743,33.40022 0.42067,49.46348 -2.44093,4.3088 -8.24593,4.99554 -12.13971,7.50201 z"
           fill="#3c2358"
           stroke="none"
           id="path2"
           inkscape:path-effect="#path-effect2"
           inkscape:original-d="m 516,644.99686 c -17.8279,1.25769 -28.88177,-16.23045 -39.45056,-27.8401 -32.26456,-41.5334 -50.70364,-93.94959 -49.56767,-146.62272 -1.4938,-36.23979 4.34423,-72.83542 19.20073,-106.05702 15.42861,-34.58611 35.56892,-67.81327 63.8175,-93.47388 15.34905,9.84289 25.12401,26.08071 36.06544,40.25935 25.39731,37.29113 46.36191,79.84732 47.92322,125.72931 1.74445,13.70332 1.19262,27.79189 1.24466,41.46642 1.66313,15.58798 -8.53096,27.04335 -20.87621,34.71914 -22.62073,19.35996 -41.63072,44.88491 -46.63807,74.85401 -4.28631,16.44409 -2.16743,33.40022 0.42067,49.46348 -2.44093,4.3088 -8.24593,4.99554 -12.13971,7.50201 z" /><path
           d="m 475,638.99686 c -33.87685,-11.69757 -64.6862,-32.2146 -88.93624,-58.52253 -19.73262,-23.29078 -37.71716,-48.37229 -51.52927,-75.65965 -14.04413,-29.07712 -24.5522,-60.50029 -26.07787,-92.94366 -1.432,-13.92356 0.14821,-27.9194 -0.45348,-41.87102 2.10481,-14.50883 -1.33559,-33.38745 14.2228,-25.11705 10.06703,3.2417 25.53274,9.92882 40.85948,18.40814 15.32674,8.47932 33.12033,20.1221 48.91262,40.71009 11.5037,12.0147 5.77392,27.81822 4.86024,42.33787 -0.62192,12.74007 -1.47162,25.5069 -0.58445,38.32456 1.59827,34.70399 10.22244,69.12722 25.87248,100.13757 9.02497,16.9142 20.03468,32.52315 31.08419,48.13813 0.26842,1.76876 4.39492,4.66562 1.7695,6.05755 z"
           fill="#3c2358"
           stroke="none"
           id="path3"
           sodipodi:nodetypes="cccccczcccccc" /><path
           d="m 463,654.99686 c -26.43089,0.47089 -52.9684,-2.83173 -78.58777,-9.28811 -35.25709,-9.89838 -71.22477,-22.09302 -99.09615,-46.84109 -25.94902,-21.87409 -49.22928,-47.75201 -63.78254,-78.68914 -10.26856,-21.26456 -18.84999,-43.51331 -24.09723,-66.55248 2.34504,-9.58435 17.74357,-3.65845 25.83271,-4.53398 14.61617,1.01705 29.17309,4.99933 43.11467,9.77048 16.99806,6.32902 34.41809,14.2362 46.61317,28.13746 5.15058,11.28844 10.12676,22.63912 16.52075,33.25765 18.46842,31.76826 40.34674,62.15477 68.00415,86.60402 18.08194,15.54598 39.86849,27.58872 60.53395,37.59451 6.31152,3.26626 22.30428,8.65392 4.94429,10.54068 z"
           fill="#3c2358"
           stroke="none"
           id="path4"
           sodipodi:nodetypes="cccccccccccc" /><path
           d="m 596,653.99686 c -16.80864,-0.51087 -34.06974,1.62841 -50.49083,-2.81157 -5.5897,-7.51092 2.23415,-3.38056 22.25442,-9.51598 20.02027,-6.13542 63.15429,-22.02091 85.49673,-47.99628 18.66985,-18.66783 29.00683,-44.51614 31.84272,-70.50297 3.95372,-19.77623 22.06448,-32.03545 36.9713,-43.6478 24.02777,-16.38852 52.14976,-26.61405 80.92566,-30.51912 8.91516,-0.58807 29.36477,-3.92747 20.27627,11.23939 -8.73824,36.20515 -26.18567,70.10506 -49.10162,99.38045 -14.56271,19.60716 -23.43553,31.3899 -36.01421,41.83333 -10.52577,8.73901 -23.64647,16.54019 -44.8675,27.20346 C 665.53041,639.66892 623.08407,652.60432 596,653.99686 Z"
           fill="#3c2358"
           stroke="none"
           id="path5"
           sodipodi:nodetypes="cczccccccscc" /><path
           d="m 346.02697,732.62036 c -10.69799,0.52019 -21.41244,-1.17028 -32.02697,-2.6235 -10.59504,-1.45055 -21.08269,-2.95531 -31.51141,-6.0722 -11.13345,-2.54667 -21.4514,-6.33547 -31.95031,-10.51639 -11.80205,-4.5031 -22.91781,-10.2471 -33.42735,-17.15596 -5.19491,-3.08509 -9.97273,-6.67386 -14.10779,-11.25231 6.6629,-6.32438 13.40965,-12.47332 20.84674,-17.84674 8.25687,-7.23229 17.23659,-13.11975 26.31646,-19.22908 10.77198,-6.22516 22.38582,-11.18724 33.83366,-15.92104 12.05347,-4.73598 19.58116,-4.62152 33.77785,1.66034 10.1149,5.50108 20.53488,9.48837 31.08046,13.68756 11.26703,4.45444 23.0494,8.09566 34.96275,10.68489 11.25675,2.56506 21.34062,4.03907 33.71144,5.9441 8.98186,0.89075 18.23303,1.84613 27.46204,2.01765 8.96736,0.15496 13.4634,-0.17789 23.83145,-0.4336 4.90097,0.0215 17.21172,-2.07934 10.17005,5.33336 -7.73672,8.58764 -17.0711,15.30453 -26.48001,21.75339 -9.06651,6.21418 -18.76955,11.48902 -28.67965,16.18415 -10.58209,5.0135 -21.66956,8.86756 -32.70999,12.72451 -7.38232,2.579 -14.80682,5.09899 -22.3957,6.95642 -7.47325,1.82913 -15.02604,3.73112 -22.70372,4.10445 z"
           fill="#3c2358"
           stroke="none"
           id="path6"
           style="opacity:0.5;fill:#3c1f5c;fill-opacity:1"
           sodipodi:nodetypes="aaccccccccccccccaaaaa" /><path
           d="m 703,729.99686 c -16.94247,0.31934 -34.01801,0.19126 -50.63612,-3.42137 -13.00284,-2.50847 -25.7467,-5.87854 -38.03819,-10.78282 -21.87205,-8.96321 -42.83169,-20.57432 -61.61654,-35.04186 -4.80211,-5.38382 -20.30258,-11.05228 -16.05939,-15.84648 6.26755,-7.08144 19.16144,-3.16682 28.63123,-2.49032 12.00715,0.85777 23.54338,2.34538 35.54777,1.16501 20.92821,-2.05783 41.58007,-6.44132 61.6229,-12.64216 17.46567,-5.40352 36.09904,-14.74967 53.23898,-20.93372 12.36153,-4.46001 22.26907,3.81225 33.86148,7.94291 26.08489,10.64052 49.26382,27.57418 69.44474,47.05395 -16.12688,15.96516 -37.32102,25.14926 -58.36982,32.69898 -16.23167,6.98232 -33.93607,10.09963 -51.38291,12.22699 -2.07744,0.139 -4.16439,0.20029 -6.24413,0.0709 z"
           fill="#3c2358"
           stroke="none"
           id="path7"
           style="opacity:0.5;fill:#3c1f5c;fill-opacity:1"
           sodipodi:nodetypes="scccsssssccccss" /><path
           d="m 510.58008,663.17969 c -1.69687,-0.0483 -3.43773,0.7595 -5.58008,2.82422 -5.0062,4.82478 -12.14737,9.35719 -19.95117,15.35351 -7.8038,5.99632 -17.62589,14.19058 -22.04492,22.64258 -4.41904,8.45199 -4.66224,15.73062 -4.00391,24.99609 0.65832,9.26547 1.22273,14.93096 9,29 3.85105,6.96653 11.18984,18.26097 18.89648,26.90625 7.85706,8.81402 24.10352,23.09375 24.10352,23.09375 0,0 0.10677,-0.0902 0.30664,-0.26172 0.19987,0.17148 0.30469,0.26172 0.30469,0.26172 0,0 16.24841,-14.27973 24.10547,-23.09375 7.70664,-8.64528 15.04348,-19.93972 18.89453,-26.90625 7.77727,-14.06904 8.34168,-19.73453 9,-29 0.65833,-9.26547 0.41708,-16.5441 -4.00196,-24.99609 -4.41903,-8.452 -14.24307,-16.64626 -22.04687,-22.64258 -7.8038,-5.99632 -14.94497,-10.52873 -19.95117,-15.35351 -2.4484,-2.35968 -4.37159,-3.07727 -6.30469,-2.75196 -0.24164,-0.0407 -0.48415,-0.0654 -0.72656,-0.0723 z"
           fill="#3c2358"
           stroke="none"
           id="path8"
           style="opacity:0.5;fill:#3c1f5c;fill-opacity:1"
           sodipodi:nodetypes="csszzzzzzzzzcc"
           inkscape:path-effect="#path-effect9"
           inkscape:original-d="m 511,807.99686 c 0,0 -16.24741,-14.28009 -24.10447,-23.09411 -7.70664,-8.64528 -15.04448,-19.93936 -18.89553,-26.90589 -7.77727,-14.06904 -8.34168,-19.73453 -9,-29 -0.65833,-9.26547 -0.4159,-16.54487 4.00314,-24.99686 4.41903,-8.452 14.24177,-16.64579 22.04557,-22.64211 7.8038,-5.99632 14.94509,-10.52997 19.95129,-15.35475 5.0062,-4.82478 7.82234,-2.78489 12.99944,0.99944 5.1771,3.78433 13.83493,9.07812 20.54701,14.7994 6.71207,5.72128 12.9425,10.54475 18.81454,18.09927 5.87205,7.55453 8.19584,19.74158 6.86456,27.93964 -1.33128,8.19806 -3.84862,18.94739 -8.56832,27.62979 -4.7197,8.6824 -9.37396,16.44616 -17.59925,27.30376 C 529.92123,791.84812 511,807.99686 511,807.99686 Z"
           transform="translate(-1.2683818,0.32262541)" /></g></g></g></svg>
