<?xml version="1.0" encoding="UTF-8" standalone="no"?>
<!-- Created with Inkscape (http://www.inkscape.org/) -->

<svg
   width="1000mm"
   height="259.466mm"
   viewBox="0 0 999.99995 259.46601"
   version="1.1"
   id="svg1"
   xml:space="preserve"
   inkscape:version="1.4.2 (ebf0e940, 2025-05-08)"
   sodipodi:docname="Intune_logo_words_better.svg"
   xmlns:inkscape="http://www.inkscape.org/namespaces/inkscape"
   xmlns:sodipodi="http://sodipodi.sourceforge.net/DTD/sodipodi-0.dtd"
   xmlns="http://www.w3.org/2000/svg"
   xmlns:svg="http://www.w3.org/2000/svg"><sodipodi:namedview
     id="namedview1"
     pagecolor="#ffffff"
     bordercolor="#000000"
     borderopacity="0.25"
     inkscape:showpageshadow="2"
     inkscape:pageopacity="0.0"
     inkscape:pagecheckerboard="0"
     inkscape:deskcolor="#d1d1d1"
     inkscape:document-units="mm"
     inkscape:zoom="0.32"
     inkscape:cx="1889.0625"
     inkscape:cy="589.0625"
     inkscape:window-width="2544"
     inkscape:window-height="1374"
     inkscape:window-x="1440"
     inkscape:window-y="25"
     inkscape:window-maximized="0"
     inkscape:current-layer="layer1-3" /><defs
     id="defs1" /><g
     inkscape:label="Layer 1"
     inkscape:groupmode="layer"
     id="layer1"
     transform="translate(394.4557,7.346736)"><g
       inkscape:label="Layer 1"
       id="layer1-3"
       transform="translate(-413.21288,-90.303943)"><path
         d="m 55.666371,109.255 c 0,0 0,-12.918212 8.53525,-26.297793 H 18.75718 c 8.304569,9.688662 8.535251,23.990973 8.535251,26.297793 v 108.42076 c 0,2.07614 -0.230682,16.37844 -8.535251,26.0671 h 45.444441 c -8.53525,-13.37958 -8.53525,-26.29779 -8.53525,-26.29779 z M 221.15902,82.957207 c 5.76705,9.688662 8.07388,17.301183 8.07388,32.295543 v 78.66271 L 152.18497,82.957207 h -31.6035 c 5.53638,9.688662 8.07389,17.301183 8.07389,32.295543 v 96.19457 c 0,14.99437 -2.53751,22.60688 -8.07389,32.29554 h 35.5251 c -5.53638,-9.68866 -8.30456,-17.30117 -8.30456,-32.29554 v -77.27861 l 68.97404,95.73321 c 7.38184,11.7648 18.22391,17.30119 32.06486,16.83982 V 113.86865 c 0,-13.37958 2.53751,-21.222781 8.07388,-30.911443 z m 120.04823,0 11.30344,29.758033 14.07163,-10.84207 c 2.99887,-2.076145 5.99774,-3.229557 9.45798,-3.46024 h 17.76254 v 119.26283 c 0,1.84545 -0.23068,16.37844 -8.76593,25.83642 h 48.21263 c -8.53525,-13.1489 -8.53525,-26.06711 -8.53525,-26.06711 V 98.41293 h 18.22391 c 3.69092,0.230683 6.68979,1.384095 9.45799,3.46024 l 14.30231,10.84207 11.99548,-29.758033 z m 282.44878,0 c 6.22842,8.765933 7.84321,22.376193 7.84321,25.605753 v 82.12294 c 0,14.30232 -2.30683,38.52398 -21.45347,38.52398 -18.4546,0 -41.06147,-11.30345 -41.06147,-39.67738 0,-28.14326 -0.46137,-53.51833 -0.69205,-80.2775 0,0 0,-12.918212 8.30456,-26.297793 h -49.59672 c 8.30456,9.688662 8.30456,24.221653 8.53525,26.067113 v 76.81725 c 0.69205,31.14214 11.07275,60.66949 59.0547,60.66949 50.98082,0 59.97744,-39.67739 59.97744,-56.51721 V 109.255 c 0,0 0,-12.918212 7.8432,-26.297793 z m 194.78912,0 c 5.76706,9.688662 8.07388,17.301183 8.07388,32.295543 v 78.66271 L 749.47111,82.957207 h -31.6035 c 5.53638,9.688662 8.07389,17.301183 8.07389,32.295543 v 96.19457 c 0,14.99437 -2.53751,22.60688 -8.07389,32.29554 h 35.5251 c -5.53639,-9.68866 -8.30457,-17.30117 -8.30457,-32.29554 v -77.27861 l 68.97405,95.73321 c 7.38184,11.7648 18.22391,17.30119 32.06486,16.83982 V 113.86865 c 0,-13.37958 2.5375,-21.222781 8.07388,-30.911443 z M 993.16517,224.8269 c -2.76819,2.07615 -5.76707,3.22956 -9.2273,3.46024 h -34.60236 v -57.6706 h 23.5296 c 0,0 12.91822,0 26.2978,8.53524 v -32.75691 c -9.68867,8.30458 -23.99098,8.53526 -26.06712,8.76595 H 949.33551 V 98.41293 h 34.60236 c 3.46023,0.230683 6.45911,1.384095 9.2273,3.46024 l 14.30223,11.07276 11.5342,-29.988723 H 909.88881 c 8.30456,9.688662 8.53525,23.990973 8.53525,26.067113 v 108.65144 c 0,2.07614 -0.23069,16.37844 -8.53525,26.0671 h 109.11279 l -11.9955,-30.68075 z"
         id="text1"
         style="font-size:229.729px;line-height:0;font-family:Maragsa;-inkscape-font-specification:'Maragsa, Normal';text-align:center;text-anchor:middle;fill:#6b676f;stroke-width:3.92795"
         aria-label="IN TUNE"
         sodipodi:nodetypes="cccsscccccscccssccscccscccccccsccccccccccsssscccccssccccscccssccscccscccccccccccccccccsscccc" /><path
         d="m 190.38277,270.27075 h -0.89198 l -27.05722,59.76375 -27.65188,-59.86285 h -0.89199 l -7.43331,63.62905 c -0.49555,3.86531 -3.66709,6.14487 -7.23507,6.14487 h -1.58578 v 0.9911 h 19.22748 v -0.89199 h -1.58577 c -2.18044,0 -4.06354,-2.08132 -3.86532,-4.26176 l 4.36087,-48.36601 25.37234,54.90732 h 0.89199 c 0.69377,-4.06355 3.36976,-10.10929 3.36976,-10.10929 l 20.91236,-46.2847 4.45997,49.85268 c 0.19823,2.18044 -1.78398,4.26176 -3.86531,4.26176 h -1.58578 v 0.89199 h 21.60613 v -0.9911 h -1.58578 c -3.56797,0 -6.73951,-2.27956 -7.23506,-6.14487 z m 70.56674,1.28844 v 0.99111 h 1.58577 c 2.77511,0 5.15376,2.08132 5.25287,4.85642 v 39.04962 c 0,13.67727 -8.82086,22.79546 -22.10169,22.79546 -12.58704,0 -21.01146,-9.61375 -21.01146,-24.08391 v -37.76117 c 0.0991,-2.7751 2.37865,-4.85642 5.15376,-4.85642 h 1.68488 v -0.99111 h -20.11946 v 0.99111 h 1.58577 c 2.8742,0 5.15376,2.08132 5.25285,4.95553 v 39.14872 c 0,15.46128 11.00129,25.76878 27.45366,25.76878 16.05594,0 26.7599,-10.40661 26.7599,-25.96699 v -39.14873 c 0.0991,-2.77509 2.37865,-4.75731 5.15374,-4.75731 h 1.68489 v -0.99111 z m 40.23893,22.2008 c -3.17154,-2.97331 -3.96444,-6.54131 -3.96444,-9.2173 0,-5.94664 4.85643,-11.39772 12.19063,-11.39772 6.14485,0 11.10038,3.86531 11.10038,10.20839 h 0.99111 v -10.90217 -1.18932 h -3.96442 c -2.67599,-0.59467 -5.84753,-1.09022 -8.52352,-1.09022 -11.29862,0 -17.34436,8.4244 -17.34436,16.7497 0,3.86533 1.28842,8.62263 5.35197,12.28973 l 18.93013,17.6417 c 2.47778,2.37866 3.96444,5.35197 3.96444,9.31641 0,7.82972 -6.04576,12.78527 -13.28083,13.28082 -8.82085,0.39644 -15.36216,-6.04575 -14.37106,-16.35327 h -0.79289 c -1.58576,4.45998 -1.88309,10.80308 -1.18931,13.8755 3.86531,4.06354 11.89327,5.45109 16.7497,5.45109 11.39773,0 18.63281,-7.63152 18.63281,-18.5337 0,-4.06353 -1.09022,-8.42439 -5.05465,-12.09149 z m 57.68245,46.18558 h -1.28844 c -3.46886,0 -6.24397,-2.7751 -6.34308,-6.14487 v -55.00643 c 0.0991,-3.46887 2.97332,-6.24397 6.34308,-6.24397 h 1.28844 v -0.99111 h -21.60614 v 0.99111 h 1.18934 c 3.46889,0 6.34308,2.7751 6.34308,6.24397 v 55.00643 c 0,3.36977 -2.87419,6.14487 -6.34308,6.14487 h -1.18934 v 0.9911 h 21.60614 z m 73.54001,-27.8501 c -2.27954,20.21857 -14.17281,27.25542 -28.24654,27.35454 -16.65059,-0.49555 -27.9492,-13.47905 -27.9492,-33.4003 0,-19.72303 11.10039,-32.90474 28.44476,-32.90474 11.99239,0.0991 21.70524,6.24397 24.67856,17.7408 h 0.79288 l -1.98222,-13.9746 c -5.74841,-3.7662 -13.67726,-6.64042 -23.39012,-6.64042 -21.80434,0 -35.97717,14.47017 -35.97717,35.97719 0,21.90345 14.66838,36.07629 35.38251,36.17539 13.67727,0 22.59724,-6.24398 27.85011,-14.76749 l 1.18933,-15.56037 z m 44.40161,-40.63538 c -4.26178,0 -10.10929,-0.99111 -11.89329,-1.784 v 12.48795 h 0.99111 v -1.784 c 0,-3.17153 2.47776,-5.74842 5.64929,-5.94664 h 18.73193 v 59.46642 c -0.0991,3.36976 -2.87421,6.14486 -6.34308,6.14486 h -1.18933 l -0.0991,0.9911 h 21.70524 v -0.9911 h -1.18933 c -3.46888,0 -6.24398,-2.7751 -6.34309,-6.24398 v -59.3673 h 18.73193 c 3.17154,0.19822 5.64931,2.77511 5.64931,5.94664 v 1.784 h 0.99109 v -12.48795 c -1.88308,0.79289 -7.6315,1.784 -11.89327,1.784 z m 122.00526,69.47658 -0.0991,-0.9911 h -1.18934 c -3.46886,0 -6.34307,-2.7751 -6.34307,-6.14487 v -55.00643 c 0,-3.46887 2.87421,-6.24397 6.34307,-6.24397 h 1.18934 l 0.0991,-0.99111 h -21.70525 v 0.99111 h 1.28845 c 3.36976,0 6.14485,2.7751 6.34309,6.14486 v 26.46256 h -40.63538 v -26.36345 c 0.0991,-3.46887 2.97332,-6.24397 6.34308,-6.24397 h 1.28843 v -0.99111 h -21.60612 v 0.99111 h 1.18932 c 3.46889,0 6.24399,2.7751 6.34309,6.24397 v 55.00643 c 0,3.36977 -2.8742,6.24398 -6.34309,6.24398 h -1.18932 l -0.0991,0.9911 h 21.70523 v -0.9911 h -1.28843 c -3.46888,0 -6.24398,-2.87421 -6.34308,-6.24398 v -25.66965 h 40.63538 v 25.66965 c -0.0991,3.46888 -2.97333,6.24398 -6.34309,6.24398 h -1.28845 v 0.9911 z m 58.67346,-15.95681 h -0.99109 c -3.07243,7.5324 -7.03686,12.9835 -17.54259,12.9835 H 624.6856 v -29.73322 h 16.84882 c 2.67599,0.0991 4.75732,2.27956 4.75732,4.95555 v 1.38754 h 0.9911 v -15.65948 h -0.9911 v 1.48666 c 0,2.67598 -2.18044,4.85642 -4.85643,4.85642 H 624.6856 v -30.62521 h 20.21858 c 3.17155,0.19823 5.55021,2.7751 5.55021,5.94665 v 1.68488 l 0.9911,0.0991 v -8.02797 -1.58576 -2.97332 c -1.78398,0.79288 -7.53241,1.78398 -11.79417,1.78398 H 610.711 v 0.99111 h 1.28844 c 3.27066,0 5.94664,2.57688 6.24397,5.74843 v 55.50197 c 0,3.36977 -2.87422,6.24398 -6.34308,6.24398 H 610.711 v 0.9911 h 41.03183 z m 9.41546,-53.42067 v 0.99111 h 1.18933 c 3.46887,0 6.34308,2.7751 6.34308,6.24397 v 55.00643 c -0.0991,3.46888 -2.87421,6.24398 -6.34308,6.24398 h -1.18933 v 0.9911 h 21.60614 v -0.9911 h -1.28846 c -3.46886,0 -6.24396,-2.87421 -6.34308,-6.24398 v -59.06997 c 1.28844,0 7.33419,-0.19821 12.38884,0 7.33418,0.39645 11.99239,6.14487 12.28972,15.16393 0,2.18044 -0.19822,4.55911 -0.69379,5.94666 -2.77509,8.91996 -10.3075,10.10929 -15.46125,10.3075 -2.97332,0 -5.25285,0 -5.25285,0 v 0.892 c 3.66709,0 6.54129,3.46888 9.11817,6.73952 0.79288,0.892 11.99239,17.14616 13.0826,18.5337 3.07244,3.66709 8.02796,8.62263 17.24526,8.62263 h 5.45109 v -0.9911 c -5.74841,0 -9.4155,-3.07243 -13.47905,-7.43331 -3.76621,-4.16263 -12.38884,-16.45236 -12.38884,-16.45236 -1.8831,-2.676 -4.95553,-5.94665 -7.03686,-6.93775 9.51463,0 16.84881,-9.31641 16.84881,-18.93015 0,-11.49684 -7.43329,-18.63281 -19.42568,-18.63281 z m 93.75866,-1.38754 h -0.892 c 0,2.18043 -3.6671,10.20839 -3.6671,10.20839 l -22.49812,53.42066 c -1.98221,4.36087 -5.64932,6.14487 -8.72173,6.14487 h -0.89201 v 0.9911 h 20.02037 v -0.89199 h -0.892 c -2.57688,0 -5.15376,-2.27955 -3.76621,-6.24398 l 6.64041,-16.94792 h 26.66078 l 6.34309,16.94792 c 1.48665,3.96443 -1.18934,6.24398 -3.76621,6.24398 h -0.892 v 0.89199 h 22.2999 v -0.9911 h -0.79289 c -3.07243,0 -6.73952,-1.784 -8.72173,-6.14487 z m -13.47905,43.70782 12.38883,-31.71543 11.9924,31.71543 z m 54.41173,-42.32028 v 0.99111 h 1.28844 c 3.27065,0 5.94664,2.57688 6.24398,5.74843 v 55.50197 c 0,3.36977 -2.8742,6.24398 -6.34308,6.24398 h -1.18934 v 0.9911 h 21.60614 v -0.9911 h -1.18934 c -3.46886,0 -6.34307,-2.87421 -6.34307,-6.24398 v -59.16908 h 11.39772 c 8.42441,0 13.08262,6.04577 13.37995,15.16394 0,2.18043 -0.19823,4.5591 -0.69377,5.94664 -4.45998,14.17283 -20.71415,10.70396 -20.71415,10.70396 v 0.89199 c 12.38883,6.54132 28.84122,-1.48667 28.84122,-16.55147 0,-11.89329 -7.82975,-19.12838 -20.51592,-19.12838 z m 95.74088,0 v 0.99111 h 1.28849 c 2.67593,0 5.05465,3.27065 3.56793,6.14486 h -0.0991 l -15.75862,27.751 -14.8666,-27.65189 c -1.48665,-2.8742 0.59466,-6.24397 3.46889,-6.24397 h 1.18932 v -0.99111 h -24.28211 v 0.99111 h 1.28843 c 4.16265,0 8.02797,2.7751 10.01018,5.84753 l 18.83102,31.5172 v 23.88567 c -0.0991,3.46888 -2.8742,6.24398 -6.34307,6.24398 h -1.28844 v 0.9911 h 21.70522 v -0.9911 h -1.28842 c -3.46888,0 -6.24398,-2.87421 -6.34309,-6.24398 v -23.78656 l 19.62393,-31.61631 c 2.08127,-3.07243 5.74845,-5.74842 9.91111,-5.74842 h 1.38749 v -1.09022 z"
         id="text2"
         style="font-size:126.855px;line-height:0;font-family:Cinzel;-inkscape-font-specification:'Cinzel, Normal';text-align:center;word-spacing:0px;text-anchor:middle;fill:#3c2358;stroke-width:1.68761"
         aria-label="MUSIC THERAPY" /></g></g></svg>
