<?xml version="1.0" encoding="UTF-8" standalone="no"?>
<!-- Created with Inkscape (http://www.inkscape.org/) -->

<svg
   width="1028.0615mm"
   height="311.65857mm"
   viewBox="0 0 1028.0615 311.65857"
   version="1.1"
   id="svg1"
   xml:space="preserve"
   inkscape:version="1.4.2 (ebf0e940, 2025-05-08)"
   sodipodi:docname="Intune_logo_words_clothing.svg"
   xmlns:inkscape="http://www.inkscape.org/namespaces/inkscape"
   xmlns:sodipodi="http://sodipodi.sourceforge.net/DTD/sodipodi-0.dtd"
   xmlns="http://www.w3.org/2000/svg"
   xmlns:svg="http://www.w3.org/2000/svg"><sodipodi:namedview
     id="namedview1"
     pagecolor="#ffffff"
     bordercolor="#000000"
     borderopacity="0.25"
     inkscape:showpageshadow="2"
     inkscape:pageopacity="0.0"
     inkscape:pagecheckerboard="0"
     inkscape:deskcolor="#d1d1d1"
     inkscape:document-units="mm"
     inkscape:zoom="0.41950163"
     inkscape:cx="685.33703"
     inkscape:cy="452.91838"
     inkscape:window-width="1336"
     inkscape:window-height="847"
     inkscape:window-x="0"
     inkscape:window-y="25"
     inkscape:window-maximized="0"
     inkscape:current-layer="layer1" /><defs
     id="defs1" /><g
     inkscape:label="Layer 1"
     inkscape:groupmode="layer"
     id="layer1"
     transform="translate(-3.3828337,-82.727741)"><path
       d="m 55.513821,109.14631 c 0,0 0,-12.864821 8.499973,-26.189103 H 18.75718 c 8.270245,9.648618 8.499974,23.891813 8.499974,26.189103 v 107.97264 c 0,2.06756 -0.229729,16.31075 -8.499974,25.95937 h 45.256614 c -8.499973,-13.32428 -8.499973,-26.1891 -8.499973,-26.1891 z M 220.32247,82.957207 c 5.74322,9.648618 8.04051,17.229673 8.04051,32.162063 v 78.33759 L 151.6335,82.957207 h -31.47288 c 5.5135,9.648618 8.04052,17.229673 8.04052,32.162063 v 95.79699 c 0,14.93239 -2.52702,22.51344 -8.04052,32.16206 h 35.37827 c -5.5135,-9.64862 -8.27024,-17.22967 -8.27024,-32.16206 v -76.95921 l 68.68897,95.33753 c 7.35133,11.71618 18.14859,17.22968 31.93233,16.77022 V 113.74089 c 0,-13.32428 2.52702,-21.135065 8.04051,-30.783683 z m 119.55206,0 11.25672,29.635043 14.01347,-10.79726 c 2.98648,-2.067566 5.97295,-3.216211 9.41889,-3.44594 h 17.68913 v 118.7699 c 0,1.83783 -0.22973,16.31075 -8.7297,25.72964 h 48.01336 c -8.49997,-13.09455 -8.49997,-25.95937 -8.49997,-25.95937 V 98.34905 h 18.14859 c 3.67566,0.229729 6.66214,1.378374 9.41889,3.44594 l 14.2432,10.79726 11.9459,-29.635043 z m 281.28139,0 c 6.20268,8.729702 7.81079,22.283713 7.81079,25.499923 v 81.78352 c 0,14.2432 -2.29729,38.36475 -21.3648,38.36475 -18.37832,0 -40.89176,-11.25673 -40.89176,-39.51339 0,-28.02694 -0.45946,-53.29713 -0.68919,-79.9457 0,0 0,-12.864821 8.27024,-26.189103 h -49.39173 c 8.27024,9.648618 8.27024,24.121543 8.49997,25.959373 v 76.49976 c 0.68919,31.01342 11.02699,60.41873 58.81062,60.41873 50.77011,0 59.72955,-39.51339 59.72955,-56.28361 v -80.40515 c 0,0 0,-12.864821 7.81078,-26.189103 z m 193.98404,0 c 5.74322,9.648618 8.04051,17.229673 8.04051,32.162063 v 78.33759 L 746.45099,82.957207 h -31.47288 c 5.5135,9.648618 8.04052,17.229673 8.04052,32.162063 v 95.79699 c 0,14.93239 -2.52702,22.51344 -8.04052,32.16206 h 35.37827 c -5.5135,-9.64862 -8.27024,-17.22967 -8.27024,-32.16206 v -76.95921 l 68.68897,95.33753 c 7.35133,11.71618 18.14859,17.22968 31.93233,16.77022 V 113.74089 c 0,-13.32428 2.52702,-21.135065 8.04051,-30.783683 z M 989.13784,224.24054 c -2.75675,2.06757 -5.74323,3.21621 -9.18916,3.44594 h -34.45935 v -57.43225 h 23.43235 c 0,0 12.86483,0 26.18911,8.49997 v -32.62152 c -9.64862,8.27025 -23.89182,8.49998 -25.95938,8.72971 H 945.48933 V 98.34905 h 34.45935 c 3.44593,0.229729 6.43241,1.378374 9.18916,3.44594 l 14.24316,11.02699 11.4865,-29.864773 H 906.20567 c 8.27024,9.648618 8.49997,23.891813 8.49997,25.959373 v 108.20237 c 0,2.06756 -0.22973,16.31075 -8.49997,25.95937 h 108.66183 l -11.9459,-30.55395 z"
       id="text1"
       style="font-size:229.729px;line-height:0;font-family:Maragsa;-inkscape-font-specification:'Maragsa, Normal';text-align:center;text-anchor:middle;fill:#6b676f;stroke-width:3.91172"
       aria-label="IN TUNE"
       sodipodi:nodetypes="cccsscccccscccssccscccscccccccsccccccccccsssscccccssccccscccssccscccscccccccccccccccccsscccc" /><path
       d="M 98.299198,302.16273 H 97.157503 L 62.526087,378.6563 27.133541,302.03588 h -1.141695 l -9.514126,81.44091 c -0.634275,4.94735 -4.693635,7.86501 -9.2604148,7.86501 h -2.02968 v 1.26855 H 29.797496 v -1.14169 h -2.02968 c -2.79081,0 -5.201055,-2.66396 -4.947345,-5.45477 l 5.58162,-61.90524 32.474881,70.27767 h 1.141695 c 0.887985,-5.20105 4.31307,-12.93921 4.31307,-12.93921 l 26.766406,-59.24129 5.708475,63.80807 c 0.25371,2.79081 -2.28339,5.45477 -4.947345,5.45477 h -2.029681 v 1.14169 h 27.654388 v -1.26855 h -2.02968 c -4.56678,0 -8.62614,-2.91766 -9.26041,-7.86501 z m 90.320672,1.64912 v 1.26855 h 2.02968 c 3.55194,0 6.59646,2.66395 6.72332,6.21589 v 49.98088 c 0,17.50599 -11.2901,29.17665 -28.28867,29.17665 -16.11058,0 -26.89326,-12.30494 -26.89326,-30.82577 v -48.33176 c 0.12686,-3.55194 3.04452,-6.21589 6.59646,-6.21589 h 2.15654 v -1.26855 h -25.75157 v 1.26855 h 2.02968 c 3.67879,0 6.59646,2.66395 6.72331,6.34275 v 50.10773 c 0,19.78938 14.08091,32.9823 35.13884,32.9823 20.55051,0 34.25085,-13.31978 34.25085,-33.23601 v -50.10773 c 0.12686,-3.55194 3.04452,-6.08904 6.59646,-6.08904 h 2.15654 v -1.26855 z m 51.50312,28.41552 c -4.05936,-3.80565 -5.0742,-8.37243 -5.0742,-11.79752 0,-7.6113 6.21589,-14.58832 15.60316,-14.58832 7.86501,0 14.20776,4.94734 14.20776,13.06606 h 1.26855 v -13.95405 -1.52226 h -5.0742 c -3.42508,-0.76113 -7.48444,-1.3954 -10.90953,-1.3954 -14.46147,0 -22.19962,10.78267 -22.19962,21.43849 0,4.94735 1.64911,11.03639 6.85017,15.73003 l 24.2293,22.58019 c 3.17138,3.04452 5.0742,6.85017 5.0742,11.92437 0,10.02154 -7.73815,16.36429 -16.99857,16.99857 -11.29009,0.50742 -19.66252,-7.73816 -18.39397,-20.93108 h -1.01484 c -2.02968,5.70848 -2.41025,13.8272 -1.52226,17.7597 4.94734,5.20106 15.2226,6.97703 21.43849,6.97703 14.58833,0 23.84874,-9.76784 23.84874,-23.72189 0,-5.20105 -1.3954,-10.78267 -6.4696,-15.47631 z m 73.82966,59.11443 h -1.64911 c -4.43993,0 -7.99187,-3.55194 -8.11872,-7.86501 v -70.40453 c 0.12685,-4.43992 3.80565,-7.99186 8.11872,-7.99186 h 1.64911 v -1.26855 h -27.65439 v 1.26855 h 1.52226 c 4.43993,0 8.11872,3.55194 8.11872,7.99186 v 70.40453 c 0,4.31307 -3.67879,7.86501 -8.11872,7.86501 h -1.52226 v 1.26855 h 27.65439 z m 94.12628,-35.64625 c -2.91767,25.87842 -18.14027,34.88512 -36.15368,35.01198 -21.31164,-0.63428 -35.77311,-17.25228 -35.77311,-42.75014 0,-25.24415 14.20776,-42.11586 36.40738,-42.11586 15.34946,0.12685 27.78125,7.99186 31.5869,22.70704 h 1.01484 l -2.5371,-17.88655 c -7.35759,-4.82049 -17.50599,-8.49929 -29.93778,-8.49929 -27.9081,0 -46.04837,18.52083 -46.04837,46.04837 0,28.03496 18.77454,46.17522 45.28724,46.30208 17.50599,0 28.92294,-7.99187 35.64626,-18.9014 l 1.52226,-19.91623 z m 56.83105,-52.01056 c -5.45477,0 -12.93921,-1.26855 -15.2226,-2.28339 v 15.98373 h 1.26855 v -2.28339 c 0,-4.05936 3.17137,-7.35759 7.23073,-7.6113 h 23.9756 v 76.11301 c -0.12686,4.31307 -3.6788,7.86501 -8.11872,7.86501 h -1.52226 l -0.12686,1.26855 h 27.78125 v -1.26855 h -1.52226 c -4.43993,0 -7.99187,-3.55194 -8.11872,-7.99187 v -75.98615 h 23.9756 c 4.05936,0.25371 7.23073,3.55194 7.23073,7.6113 v 2.28339 h 1.26855 V 301.4016 c -2.41024,1.01484 -9.76783,2.28339 -15.2226,2.28339 z m 156.15854,88.92536 -0.12686,-1.26855 h -1.52226 c -4.43992,0 -8.11872,-3.55194 -8.11872,-7.86501 v -70.40453 c 0,-4.43992 3.6788,-7.99186 8.11872,-7.99186 h 1.52226 l 0.12686,-1.26855 h -27.78125 v 1.26855 h 1.64912 c 4.31307,0 7.86501,3.55194 8.11872,7.86501 v 33.87029 h -52.01055 v -33.74344 c 0.12685,-4.43992 3.80565,-7.99186 8.11872,-7.99186 h 1.64911 v -1.26855 H 533.158 v 1.26855 h 1.52226 c 4.43993,0 7.99187,3.55194 8.11872,7.99186 v 70.40453 c 0,4.31307 -3.67879,7.99187 -8.11872,7.99187 H 533.158 l -0.12685,1.26855 h 27.78124 v -1.26855 h -1.64911 c -4.43993,0 -7.99187,-3.6788 -8.11872,-7.99187 v -32.85544 h 52.01055 v 32.85544 c -0.12686,4.43993 -3.80565,7.99187 -8.11872,7.99187 h -1.64912 v 1.26855 z m 75.0981,-20.42365 h -1.26855 c -3.9325,9.64098 -9.0067,16.618 -22.45334,16.618 h -18.26712 v -38.0565 h 21.56535 c 3.42509,0.12686 6.08905,2.91767 6.08905,6.34275 v 1.77597 h 1.26855 v -20.04309 h -1.26855 v 1.90283 c 0,3.42508 -2.79082,6.21589 -6.2159,6.21589 h -21.4385 v -39.1982 h 25.87842 c 4.05937,0.25371 7.10389,3.55194 7.10389,7.6113 v 2.15654 l 1.26855,0.12685 v -10.27525 -2.02968 -3.80565 c -2.28339,1.01484 -9.64099,2.28339 -15.09575,2.28339 h -37.04166 v 1.26855 h 1.64911 c 4.18622,0 7.6113,3.29823 7.99187,7.35759 v 71.0388 c 0,4.31307 -3.6788,7.99187 -8.11872,7.99187 h -1.52226 v 1.26855 h 52.51797 z m 12.05114,-68.37485 v 1.26855 h 1.52226 c 4.43992,0 8.11872,3.55194 8.11872,7.99186 v 70.40453 c -0.12686,4.43993 -3.6788,7.99187 -8.11872,7.99187 h -1.52226 v 1.26855 h 27.65439 v -1.26855 h -1.64912 c -4.43992,0 -7.99186,-3.6788 -8.11872,-7.99187 v -75.60558 c 1.64912,0 9.38727,-0.25371 15.85688,0 9.38727,0.50742 15.34945,7.86501 15.73002,19.40881 0,2.79081 -0.25371,5.83533 -0.88799,7.61131 -3.55194,11.41695 -13.19292,12.93921 -19.78938,13.19292 -3.80565,0 -6.72331,0 -6.72331,0 v 1.14169 c 4.69363,0 8.37243,4.43993 11.67066,8.62614 1.01484,1.1417 15.34945,21.94592 16.74486,23.72189 3.9325,4.69363 10.27525,11.03638 22.07277,11.03638 h 6.97702 v -1.26855 c -7.35759,0 -12.05122,-3.9325 -17.25228,-9.51412 -4.82049,-5.32791 -15.85687,-21.05793 -15.85687,-21.05793 -2.41025,-3.42509 -6.34275,-7.6113 -9.00671,-8.87985 12.17808,0 21.56535,-11.92437 21.56535,-24.22931 0,-14.71518 -9.51412,-23.84874 -24.86358,-23.84874 z m 120.00478,-1.77597 h -1.1417 c 0,2.79081 -4.69363,13.06606 -4.69363,13.06606 l -28.79609,68.37485 c -2.5371,5.58162 -7.23074,7.86501 -11.16324,7.86501 h -1.1417 v 1.26855 h 25.62472 v -1.14169 h -1.1417 c -3.29823,0 -6.59646,-2.91767 -4.82049,-7.99187 l 8.49929,-21.6922 h 34.12399 l 8.11872,21.6922 c 1.90283,5.0742 -1.52226,7.99187 -4.82049,7.99187 h -1.14169 v 1.14169 h 28.54237 v -1.26855 h -1.01484 c -3.9325,0 -8.62614,-2.28339 -11.16324,-7.86501 z m -17.25228,55.94306 15.85687,-40.59361 15.34946,40.59361 z m 69.64337,-54.16709 v 1.26855 h 1.64911 c 4.18622,0 7.6113,3.29823 7.99187,7.35759 v 71.0388 c 0,4.31307 -3.6788,7.99187 -8.11872,7.99187 h -1.52226 v 1.26855 h 27.65439 v -1.26855 h -1.52226 c -4.43992,0 -8.11872,-3.6788 -8.11872,-7.99187 v -75.73244 h 14.58833 c 10.78267,0 16.74486,7.73816 17.12542,19.40882 0,2.79081 -0.25371,5.83533 -0.88798,7.6113 -5.70848,18.14027 -26.5127,13.70034 -26.5127,13.70034 v 1.1417 c 15.85688,8.37243 36.91481,-1.90283 36.91481,-21.18479 0,-15.2226 -10.02155,-24.48302 -26.25899,-24.48302 z m 122.54187,0 v 1.26855 h 1.6492 c 3.425,0 6.4696,4.18621 4.5667,7.86501 h -0.1268 l -20.16997,35.5194 -19.02825,-35.39255 c -1.90282,-3.67879 0.76113,-7.99186 4.43993,-7.99186 h 1.52226 v -1.26855 h -31.07948 v 1.26855 h 1.64912 c 5.32791,0 10.27525,3.55194 12.81235,7.48444 l 24.10245,40.3399 v 30.57205 c -0.12685,4.43993 -3.67879,7.99187 -8.11872,7.99187 h -1.64911 v 1.26855 h 27.78122 v -1.26855 h -1.64909 c -4.43993,0 -7.99187,-3.6788 -8.11872,-7.99187 v -30.4452 l 25.11731,-40.46675 c 2.6639,-3.9325 7.3576,-7.35759 12.6855,-7.35759 h 1.7759 v -1.3954 z"
       id="text2"
       style="font-size:126.855px;line-height:0;font-family:Cinzel;-inkscape-font-specification:'Cinzel, Normal';text-align:center;word-spacing:0px;text-anchor:middle;fill:#3c2358;stroke-width:2.16003"
       aria-label="MUSIC THERAPY" /></g></svg>
