<?xml version="1.0" encoding="UTF-8" standalone="no"?>
<!-- Created with Inkscape (http://www.inkscape.org/) -->

<svg
   width="2000"
   height="2000"
   viewBox="0 0 529.16666 529.16666"
   version="1.1"
   id="svg1"
   xml:space="preserve"
   inkscape:version="1.4.2 (ebf0e940, 2025-05-08)"
   sodipodi:docname="thiswillbethelogo.svg"
   xmlns:inkscape="http://www.inkscape.org/namespaces/inkscape"
   xmlns:sodipodi="http://sodipodi.sourceforge.net/DTD/sodipodi-0.dtd"
   xmlns:xlink="http://www.w3.org/1999/xlink"
   xmlns="http://www.w3.org/2000/svg"
   xmlns:svg="http://www.w3.org/2000/svg"><sodipodi:namedview
     id="namedview1"
     pagecolor="#ffffff"
     bordercolor="#000000"
     borderopacity="0.25"
     inkscape:showpageshadow="2"
     inkscape:pageopacity="0.0"
     inkscape:pagecheckerboard="0"
     inkscape:deskcolor="#d1d1d1"
     inkscape:document-units="mm"
     inkscape:zoom="0.3906765"
     inkscape:cx="428.74348"
     inkscape:cy="1025.1449"
     inkscape:window-width="2056"
     inkscape:window-height="1148"
     inkscape:window-x="1663"
     inkscape:window-y="158"
     inkscape:window-maximized="0"
     inkscape:current-layer="g1"
     showgrid="false"
     showguides="true"
     inkscape:lockguides="true"><inkscape:grid
       id="grid1"
       units="mm"
       originx="0"
       originy="0"
       spacingx="0.99999998"
       spacingy="0.99999998"
       empcolor="#0099e5"
       empopacity="0.30196078"
       color="#0099e5"
       opacity="0.14901961"
       empspacing="5"
       enabled="true"
       visible="false" /></sodipodi:namedview><defs
     id="defs1"><linearGradient
       id="linearGradient241"
       inkscape:collect="always"><stop
         style="stop-color:#3c1f5c;stop-opacity:1;"
         offset="0.25773197"
         id="stop242" /><stop
         style="stop-color:#3c1f5c;stop-opacity:0.09;"
         offset="1"
         id="stop243" /></linearGradient><linearGradient
       id="linearGradient227"
       inkscape:collect="always"><stop
         style="stop-color:#3c1f5c;stop-opacity:0;"
         offset="0.24948454"
         id="stop228" /><stop
         style="stop-color:#3c1f5c;stop-opacity:1;"
         offset="0.50103092"
         id="stop227" /></linearGradient><linearGradient
       id="linearGradient225"
       inkscape:collect="always"><stop
         style="stop-color:#3c1f5c;stop-opacity:0;"
         offset="0.24948454"
         id="stop226" /><stop
         style="stop-color:#3c1f5c;stop-opacity:1;"
         offset="0.49484539"
         id="stop225" /></linearGradient><inkscape:path-effect
       effect="mirror_symmetry"
       start_point="511.30605,186.18456"
       end_point="511.30605,837.20942"
       center_point="511.30605,511.69699"
       id="path-effect9"
       is_visible="true"
       lpeversion="1.2"
       lpesatellites=""
       mode="free"
       discard_orig_path="false"
       fuse_paths="true"
       oposite_fuse="false"
       split_items="false"
       split_open="false"
       link_styles="false" /><inkscape:path-effect
       effect="fillet_chamfer"
       id="path-effect2"
       is_visible="true"
       lpeversion="1"
       nodesatellites_param="F,0,0,1,0,0,0,1 @ F,0,0,1,0,0,0,1 @ F,0,0,1,0,0,0,1 @ F,0,0,1,0,0,0,1 @ F,0,0,1,0,0,0,1 @ F,0,0,1,0,0,0,1 @ F,0,0,1,0,0,0,1 @ F,0,0,1,0,0,0,1 @ F,0,0,1,0,0,0,1 @ F,0,0,1,0,0,0,1 @ F,0,0,1,0,0,0,1"
       radius="0"
       unit="px"
       method="auto"
       mode="F"
       chamfer_steps="1"
       flexible="false"
       use_knot_distance="true"
       apply_no_radius="true"
       apply_with_radius="true"
       only_selected="false"
       hide_knots="false" /><linearGradient
       inkscape:collect="always"
       xlink:href="#linearGradient225"
       id="linearGradient226"
       x1="677.45959"
       y1="820.95258"
       x2="677.45959"
       y2="537.87799"
       gradientUnits="userSpaceOnUse" /><linearGradient
       inkscape:collect="always"
       xlink:href="#linearGradient227"
       id="linearGradient228"
       x1="342.06171"
       y1="819.75427"
       x2="342.06171"
       y2="541.63708"
       gradientUnits="userSpaceOnUse" /><linearGradient
       inkscape:collect="always"
       xlink:href="#linearGradient241"
       id="linearGradient243"
       x1="511.30582"
       y1="683.00745"
       x2="511.30582"
       y2="788.16626"
       gradientUnits="userSpaceOnUse" /><filter
       y="-0.53003466"
       height="2.0600693"
       inkscape:menu-tooltip="Darkens the edge with an inner blur and adds a flexible glow"
       inkscape:menu="Shadows and Glows"
       inkscape:label="Dark and Glow"
       style="color-interpolation-filters:sRGB"
       id="filter252"
       x="-0.077644765"
       width="1.1552895"><feGaussianBlur
         stdDeviation="5"
         result="result6"
         id="feGaussianBlur251" /><feComposite
         result="result8"
         in="SourceGraphic"
         operator="atop"
         in2="result6"
         id="feComposite251" /><feComposite
         result="result9"
         operator="over"
         in2="SourceAlpha"
         in="result8"
         id="feComposite252" /><feColorMatrix
         values="1 0 0 0 0 0 1 0 0 0 0 0 1 0 0 0 0 0 1 0 "
         result="result10"
         id="feColorMatrix252" /><feBlend
         in="result10"
         mode="normal"
         in2="result6"
         id="feBlend252" /></filter><filter
       style="color-interpolation-filters:sRGB"
       inkscape:label="Drop Shadow"
       id="filter278"
       x="-0.07919766"
       y="-0.54063535"
       width="1.1778065"
       height="2.2137794"><feFlood
         result="flood"
         in="SourceGraphic"
         flood-opacity="0.498039"
         flood-color="rgb(0,0,0)"
         id="feFlood277" /><feGaussianBlur
         result="blur"
         in="SourceGraphic"
         stdDeviation="5.100000"
         id="feGaussianBlur277" /><feOffset
         result="offset"
         in="blur"
         dx="3.000000"
         dy="3.000000"
         id="feOffset277" /><feComposite
         result="comp1"
         operator="in"
         in="offset"
         in2="flood"
         id="feComposite277" /><feComposite
         result="comp2"
         operator="over"
         in="SourceGraphic"
         in2="comp1"
         id="feComposite278" /></filter><filter
       inkscape:menu-tooltip="In and out glow with a possible offset and colorizable flood"
       inkscape:menu="Shadows and Glows"
       inkscape:label="Cutout Glow"
       style="color-interpolation-filters:sRGB"
       id="filter307"
       x="-0.04658686"
       y="-0.31802082"
       width="1.1125849"
       height="1.7685503"><feOffset
         dy="3"
         dx="3"
         id="feOffset307" /><feGaussianBlur
         stdDeviation="3"
         result="blur"
         id="feGaussianBlur307" /><feFlood
         flood-color="rgb(0,0,0)"
         flood-opacity="1"
         result="flood"
         id="feFlood307" /><feComposite
         in="flood"
         in2="SourceGraphic"
         operator="in"
         result="composite"
         id="feComposite307" /><feBlend
         in="blur"
         in2="composite"
         mode="normal"
         id="feBlend307" /></filter><filter
       style="color-interpolation-filters:sRGB"
       inkscape:label="Drop Shadow"
       id="filter366"
       x="-0.021999351"
       y="-0.15017649"
       width="1.0375283"
       height="1.2561834"><feFlood
         result="flood"
         in="SourceGraphic"
         flood-opacity="0.498039"
         flood-color="rgb(0,0,0)"
         id="feFlood365" /><feGaussianBlur
         result="blur"
         in="SourceGraphic"
         stdDeviation="1.000000"
         id="feGaussianBlur365" /><feOffset
         result="offset"
         in="blur"
         dx="-1.000000"
         dy="-1.000000"
         id="feOffset365" /><feComposite
         result="comp1"
         operator="in"
         in="offset"
         in2="flood"
         id="feComposite365" /><feComposite
         result="comp2"
         operator="over"
         in="SourceGraphic"
         in2="comp1"
         id="feComposite366" /></filter></defs><g
     inkscape:label="Layer 1"
     inkscape:groupmode="layer"
     id="layer1"><g
       id="g1"
       transform="matrix(0.81377793,0,0,0.79982936,-150.44739,-158.32075)"><path
         d="m 555,631.99686 c -20.59006,4.73272 -21.72175,-20.96783 -18.23665,-34.74079 6.34615,-30.80167 24.19879,-58.98726 50.33136,-76.73676 16.6961,-12.70717 38.0593,-25.43095 59.59761,-18.52094 4.86149,0.95295 1.78452,-6.63632 2.31026,-15.83882 V 368.99972 c 0.43047,-22.26881 0.33549,-44.7909 0.96224,-67.17092 -0.21687,-26.31089 1.25657,-52.56375 2.03832,-78.8288 14.08429,-9.36994 15.94992,3.85111 31.71259,26.06559 16.19214,22.41269 25.70047,32.15162 42.36233,49.84251 15.26878,14.1328 29.05203,31.03865 32.58938,52.13667 5.99284,31.12092 2.72624,66.67522 -19.69494,90.89052 -3.74813,5.51643 -20.89894,16.39451 -21.18875,11.51305 15.54498,-16.02014 17.69325,-40.274 17.23955,-61.53772 -0.79402,-25.78745 -28.30988,-55.59418 -37.78108,-64.12654 -9.4712,-8.53236 -22.74513,-20.93571 -22.25848,-1.02435 -1.83378,54.05218 -0.64928,108.16538 -0.98688,162.25035 -0.46633,13.85863 0.95625,27.97837 -0.75402,41.66503 -3.30626,15.2693 -10.78672,29.33174 -18.33696,42.90853 -18.41288,25.139 -46.05124,42.53451 -75.31179,52.50464 -8.06422,2.66822 -14.76731,4.90368 -24.59409,5.90858 z"
         fill="#3c2358"
         stroke="none"
         id="path1"
         sodipodi:nodetypes="cccccccccccccczcccccc" /><path
         d="m 516,644.99686 c -17.8279,1.25769 -28.88177,-16.23045 -39.45056,-27.8401 -32.26456,-41.5334 -50.70364,-93.94959 -49.56767,-146.62272 -1.4938,-36.23979 4.34423,-72.83542 19.20073,-106.05702 15.42861,-34.58611 35.56892,-67.81327 63.8175,-93.47388 15.34905,9.84289 25.12401,26.08071 36.06544,40.25935 25.39731,37.29113 46.36191,79.84732 47.92322,125.72931 1.74445,13.70332 1.19262,27.79189 1.24466,41.46642 1.66313,15.58798 -8.53096,27.04335 -20.87621,34.71914 -22.62073,19.35996 -41.63072,44.88491 -46.63807,74.85401 -4.28631,16.44409 -2.16743,33.40022 0.42067,49.46348 -2.44093,4.3088 -8.24593,4.99554 -12.13971,7.50201 z"
         fill="#3c2358"
         stroke="none"
         id="path2"
         inkscape:path-effect="#path-effect2"
         inkscape:original-d="m 516,644.99686 c -17.8279,1.25769 -28.88177,-16.23045 -39.45056,-27.8401 -32.26456,-41.5334 -50.70364,-93.94959 -49.56767,-146.62272 -1.4938,-36.23979 4.34423,-72.83542 19.20073,-106.05702 15.42861,-34.58611 35.56892,-67.81327 63.8175,-93.47388 15.34905,9.84289 25.12401,26.08071 36.06544,40.25935 25.39731,37.29113 46.36191,79.84732 47.92322,125.72931 1.74445,13.70332 1.19262,27.79189 1.24466,41.46642 1.66313,15.58798 -8.53096,27.04335 -20.87621,34.71914 -22.62073,19.35996 -41.63072,44.88491 -46.63807,74.85401 -4.28631,16.44409 -2.16743,33.40022 0.42067,49.46348 -2.44093,4.3088 -8.24593,4.99554 -12.13971,7.50201 z" /><path
         d="m 475,638.99686 c -33.87685,-11.69757 -64.6862,-32.2146 -88.93624,-58.52253 -19.73262,-23.29078 -37.71716,-48.37229 -51.52927,-75.65965 -14.04413,-29.07712 -24.5522,-60.50029 -26.07787,-92.94366 -1.432,-13.92356 0.14821,-27.9194 -0.45348,-41.87102 2.10481,-14.50883 -1.33559,-33.38745 14.2228,-25.11705 10.06703,3.2417 25.53274,9.92882 40.85948,18.40814 15.32674,8.47932 33.12033,20.1221 48.91262,40.71009 11.5037,12.0147 5.77392,27.81822 4.86024,42.33787 -0.62192,12.74007 -1.47162,25.5069 -0.58445,38.32456 1.59827,34.70399 10.22244,69.12722 25.87248,100.13757 9.02497,16.9142 20.03468,32.52315 31.08419,48.13813 0.26842,1.76876 4.39492,4.66562 1.7695,6.05755 z"
         fill="#3c2358"
         stroke="none"
         id="path3"
         sodipodi:nodetypes="cccccczcccccc" /><path
         d="m 463,654.99686 c -26.43089,0.47089 -52.9684,-2.83173 -78.58777,-9.28811 -35.25709,-9.89838 -71.22477,-22.09302 -99.09615,-46.84109 -25.94902,-21.87409 -49.22928,-47.75201 -63.78254,-78.68914 -10.26856,-21.26456 -18.84999,-43.51331 -24.09723,-66.55248 2.34504,-9.58435 17.74357,-3.65845 25.83271,-4.53398 14.61617,1.01705 29.17309,4.99933 43.11467,9.77048 16.99806,6.32902 34.41809,14.2362 46.61317,28.13746 5.15058,11.28844 10.12676,22.63912 16.52075,33.25765 18.46842,31.76826 40.34674,62.15477 68.00415,86.60402 18.08194,15.54598 39.86849,27.58872 60.53395,37.59451 6.31152,3.26626 22.30428,8.65392 4.94429,10.54068 z"
         fill="#3c2358"
         stroke="none"
         id="path4"
         sodipodi:nodetypes="cccccccccccc" /><path
         d="m 596,653.99686 c -14.25107,1.22391 -34.06974,1.62841 -50.49083,-2.81157 -5.5897,-7.51092 2.23415,-3.38056 22.25442,-9.51598 20.02027,-6.13542 63.15429,-22.02091 85.49673,-47.99628 18.66985,-18.66783 29.00683,-44.51614 31.84272,-70.50297 3.95372,-19.77623 22.06448,-32.03545 36.9713,-43.6478 24.02777,-16.38852 52.14976,-26.61405 80.92566,-30.51912 8.91516,-0.58807 29.36477,-3.92747 20.27627,11.23939 -8.73824,36.20515 -26.18567,70.10506 -49.10162,99.38045 -14.56271,19.60716 -23.43553,31.3899 -36.01421,41.83333 -10.52577,8.73901 -23.64647,16.54019 -44.8675,27.20346 C 665.53041,639.66892 623.08407,652.60432 596,653.99686 Z"
         fill="#3c2358"
         stroke="none"
         id="path5"
         sodipodi:nodetypes="cczccccccscc" /><path
         d="m 346.02697,732.62036 c -10.69799,0.52019 -21.41244,-1.17028 -32.02697,-2.6235 -10.59504,-1.45055 -21.08269,-2.95531 -31.51141,-6.0722 -11.13345,-2.54667 -21.4514,-6.33547 -31.95031,-10.51639 -11.80205,-4.5031 -22.91781,-10.2471 -33.42735,-17.15596 -5.19491,-3.08509 -9.97273,-6.67386 -14.10779,-11.25231 6.6629,-6.32438 13.40965,-12.47332 20.84674,-17.84674 8.25687,-7.23229 17.23659,-13.11975 26.31646,-19.22908 10.77198,-6.22516 22.38582,-11.18724 33.83366,-15.92104 12.05347,-4.73598 19.58116,-4.62152 33.77785,1.66034 10.1149,5.50108 20.53488,9.48837 31.08046,13.68756 11.26703,4.45444 23.0494,8.09566 34.96275,10.68489 11.25675,2.56506 21.34062,4.03907 33.71144,5.9441 8.98186,0.89075 18.23303,1.84613 27.46204,2.01765 8.96736,0.15496 13.4634,-0.17789 23.83145,-0.4336 4.90097,0.0215 17.21172,-2.07934 10.17005,5.33336 -7.73672,8.58764 -17.0711,15.30453 -26.48001,21.75339 -9.06651,6.21418 -18.76955,11.48902 -28.67965,16.18415 -10.58209,5.0135 -21.66956,8.86756 -32.70999,12.72451 -7.38232,2.579 -14.80682,5.09899 -22.3957,6.95642 -7.47325,1.82913 -15.02604,3.73112 -22.70372,4.10445 z"
         fill="#3c2358"
         stroke="none"
         id="path6"
         style="opacity:0.5;fill:url(#linearGradient228);fill-opacity:1"
         sodipodi:nodetypes="aaccccccccccccccaaaaa" /><path
         d="m 703,729.99686 c -16.94247,0.31934 -34.01801,0.19126 -50.63612,-3.42137 -13.00284,-2.50847 -25.7467,-5.87854 -38.03819,-10.78282 -21.87205,-8.96321 -42.83169,-20.57432 -61.61654,-35.04186 -4.80211,-5.38382 -20.30258,-11.05228 -16.05939,-15.84648 6.26755,-7.08144 19.16144,-3.16682 28.63123,-2.49032 12.00715,0.85777 23.54338,2.34538 35.54777,1.16501 20.92821,-2.05783 41.58007,-6.44132 61.6229,-12.64216 17.46567,-5.40352 36.09904,-14.74967 53.23898,-20.93372 12.36153,-4.46001 22.26907,3.81225 33.86148,7.94291 26.08489,10.64052 49.26382,27.57418 69.44474,47.05395 -16.12688,15.96516 -37.32102,25.14926 -58.36982,32.69898 -16.23167,6.98232 -33.93607,10.09963 -51.38291,12.22699 -2.07744,0.139 -4.16439,0.20029 -6.24413,0.0709 z"
         fill="#3c2358"
         stroke="none"
         id="path7"
         style="opacity:0.5;fill:url(#linearGradient226);fill-opacity:1"
         sodipodi:nodetypes="scccsssssccccss" /><path
         d="m 510.58008,663.17969 c -1.69687,-0.0483 -3.43773,0.7595 -5.58008,2.82422 -5.0062,4.82478 -12.14737,9.35719 -19.95117,15.35351 -7.8038,5.99632 -17.62589,14.19058 -22.04492,22.64258 -4.41904,8.45199 -4.66224,15.73062 -4.00391,24.99609 0.65832,9.26547 1.22273,14.93096 9,29 3.85105,6.96653 11.18984,18.26097 18.89648,26.90625 7.85706,8.81402 24.10352,23.09375 24.10352,23.09375 0,0 0.10677,-0.0902 0.30664,-0.26172 0.19987,0.17148 0.30469,0.26172 0.30469,0.26172 0,0 16.24841,-14.27973 24.10547,-23.09375 7.70664,-8.64528 15.04348,-19.93972 18.89453,-26.90625 7.77727,-14.06904 8.34168,-19.73453 9,-29 0.65833,-9.26547 0.41708,-16.5441 -4.00196,-24.99609 -4.41903,-8.452 -14.24307,-16.64626 -22.04687,-22.64258 -7.8038,-5.99632 -14.94497,-10.52873 -19.95117,-15.35351 -2.4484,-2.35968 -4.37159,-3.07727 -6.30469,-2.75196 -0.24164,-0.0407 -0.48415,-0.0654 -0.72656,-0.0723 z"
         fill="#3c2358"
         stroke="none"
         id="path8"
         style="opacity:0.29;fill:url(#linearGradient243);fill-opacity:1"
         sodipodi:nodetypes="csszzzzzzzzzcc"
         inkscape:path-effect="#path-effect9"
         inkscape:original-d="m 511,807.99686 c 0,0 -16.24741,-14.28009 -24.10447,-23.09411 -7.70664,-8.64528 -15.04448,-19.93936 -18.89553,-26.90589 -7.77727,-14.06904 -8.34168,-19.73453 -9,-29 -0.65833,-9.26547 -0.4159,-16.54487 4.00314,-24.99686 4.41903,-8.452 14.24177,-16.64579 22.04557,-22.64211 7.8038,-5.99632 14.94509,-10.52997 19.95129,-15.35475 5.0062,-4.82478 7.82234,-2.78489 12.99944,0.99944 5.1771,3.78433 13.83493,9.07812 20.54701,14.7994 6.71207,5.72128 12.9425,10.54475 18.81454,18.09927 5.87205,7.55453 8.19584,19.74158 6.86456,27.93964 -1.33128,8.19806 -3.84862,18.94739 -8.56832,27.62979 -4.7197,8.6824 -9.37396,16.44616 -17.59925,27.30376 C 529.92123,791.84812 511,807.99686 511,807.99686 Z"
         transform="translate(-1.2683818,0.32262541)" /></g><g
       id="g48"
       transform="matrix(2.8974221,0,0,2.8974221,-35.848678,31.355292)"
       style="mix-blend-mode:normal;fill:#6b676f;fill-opacity:1;filter:url(#filter366)"><path
         style="font-size:31.7136px;line-height:0;font-family:Maragsa;-inkscape-font-specification:Maragsa;fill:#6b676f;fill-opacity:1;stroke-width:0.365;stroke-dasharray:none"
         d="m 179.20867,144.89921 c -0.38056,0.28542 -0.79284,0.44399 -1.26855,0.4757 h -4.75704 v -7.9284 h 3.23479 c 0,0 1.77596,0 3.61535,1.17341 v -4.50333 c -1.33197,1.14169 -3.29821,1.1734 -3.58363,1.20511 h -3.26651 v -7.80154 h 4.75704 c 0.47571,0.0317 0.88799,0.19028 1.26855,0.4757 l 1.96624,1.52225 1.58568,-4.12276 h -15.00053 c 1.14169,1.33197 1.1734,3.29821 1.1734,3.58363 v 14.93711 c 0,0.28542 -0.0317,2.25166 -1.1734,3.58364 h 15.00053 l -1.64911,-4.21791 z"
         id="path13" /><path
         style="font-size:31.7136px;line-height:0;font-family:Maragsa;-inkscape-font-specification:Maragsa;fill:#6b676f;fill-opacity:1;stroke-width:0.365;stroke-dasharray:none"
         d="m 153.72028,125.27563 c 0.79284,1.33197 1.10998,2.37852 1.10998,4.4399 v 10.81434 l -10.59234,-15.25424 h -4.34477 c 0.76113,1.33197 1.10998,2.37852 1.10998,4.4399 v 13.22457 c 0,2.06139 -0.34885,3.10793 -1.10998,4.43991 h 4.8839 c -0.76113,-1.33198 -1.14169,-2.37852 -1.14169,-4.43991 v -10.62405 l 9.48236,13.16114 c 1.01484,1.61739 2.50538,2.37852 4.40819,2.31509 v -18.26703 c 0,-1.83939 0.34885,-2.91765 1.10998,-4.24962 z"
         id="path12" /><path
         style="font-size:31.7136px;line-height:0;font-family:Maragsa;-inkscape-font-specification:Maragsa;fill:#6b676f;fill-opacity:1;stroke-width:0.365;stroke-dasharray:none"
         d="m 125.1137,125.39535 c 0.85627,1.20511 1.07826,3.07622 1.07826,3.52021 0,0 0,9.32379 0,11.29004 0,1.96624 -0.31714,5.29617 -2.94936,5.29617 -2.53709,0 -5.64503,-1.55397 -5.64503,-5.45474 0,-3.86906 -0.0634,-7.35756 -0.0951,-11.03633 0,0 0,-1.77597 1.14169,-3.61535 h -6.81842 c 1.14169,1.33197 1.14169,3.32992 1.1734,3.58363 v 10.56063 c 0.0951,4.28134 1.52226,8.34068 8.11869,8.34068 7.0087,0 8.24553,-5.45474 8.24553,-7.76983 0,-2.28338 0,-11.09976 0,-11.09976 0,0 0,-1.77597 1.07826,-3.61535 z"
         id="path11" /><path
         style="font-size:31.7136px;line-height:0;font-family:Maragsa;-inkscape-font-specification:Maragsa;fill:#6b676f;fill-opacity:1;stroke-width:0.365;stroke-dasharray:none"
         d="m 84.455895,125.51508 1.553966,4.09105 1.93453,-1.49054 c 0.412277,-0.28542 0.824554,-0.44399 1.300258,-0.4757 h 2.441947 v 16.39593 c 0,0.25371 -0.03171,2.25166 -1.205117,3.55192 h 6.628142 c -1.173403,-1.80767 -1.173403,-3.58364 -1.173403,-3.58364 v -16.36421 h 2.505375 c 0.507417,0.0317 0.919694,0.19028 1.300257,0.4757 l 1.96624,1.49054 1.64911,-4.09105 z"
         id="path10" /><path
         style="font-size:31.7136px;line-height:0;font-family:Maragsa;-inkscape-font-specification:Maragsa;fill:#6b676f;fill-opacity:1;stroke-width:0.365;stroke-dasharray:none"
         d="m 57.983459,125.39535 c 0.79284,1.33197 1.109976,2.37852 1.109976,4.4399 v 10.81434 L 48.501092,125.39535 h -4.344763 c 0.761126,1.33197 1.109976,2.37852 1.109976,4.4399 v 13.22457 c 0,2.06139 -0.34885,3.10793 -1.109976,4.43991 h 4.883894 c -0.761126,-1.33198 -1.141689,-2.37852 -1.141689,-4.43991 v -10.62405 l 9.482366,13.16114 c 1.014835,1.61739 2.505375,2.37852 4.408191,2.31509 v -18.26703 c 0,-1.83939 0.348849,-2.91765 1.109976,-4.24962 z"
         id="path9" /><path
         style="font-size:31.7136px;line-height:0;font-family:Maragsa;-inkscape-font-specification:Maragsa;fill:#6b676f;fill-opacity:1;stroke-width:0.365;stroke-dasharray:none"
         d="m 33.28475,129.0107 c 0,0 0,-1.77597 1.173404,-3.61535 h -6.24758 c 1.14169,1.33197 1.173404,3.29821 1.173404,3.61535 v 14.90539 c 0,0.28542 -0.03171,2.25166 -1.173404,3.58364 h 6.24758 c -1.173404,-1.83939 -1.173404,-3.61536 -1.173404,-3.61536 z"
         id="text1" /></g><g
       id="g49"
       transform="matrix(2.8974221,0,0,2.8974221,-32.548002,43.539827)"><g
         id="g82"><path
           style="font-size:10.4841px;line-height:0;font-family:Cinzel;-inkscape-font-specification:Cinzel;text-align:center;text-anchor:middle;fill:#3c2358;stroke-width:1.16848"
           d="m 165.04008,153.66822 v 0.10484 h 0.1363 c 0.28307,0 0.53469,0.34598 0.37742,0.65002 h -0.0105 l -1.66697,2.93554 -1.57262,-2.92506 c -0.15726,-0.30404 0.0629,-0.6605 0.36695,-0.6605 h 0.12581 v -0.10484 h -2.56861 v 0.10484 h 0.13629 c 0.44034,0 0.84922,0.29356 1.0589,0.61856 l 1.99198,3.33395 v 2.52667 c -0.0105,0.36694 -0.30404,0.66049 -0.67098,0.66049 h -0.1363 v 0.10485 h 2.29602 v -0.10485 h -0.13629 c -0.36695,0 -0.6605,-0.30403 -0.67099,-0.66049 v -2.51619 l 2.07586,-3.34443 c 0.22016,-0.325 0.60807,-0.60807 1.04841,-0.60807 h 0.14677 v -0.11533 z"
           id="path48" /><path
           style="font-size:10.4841px;line-height:0;font-family:Cinzel;-inkscape-font-specification:Cinzel;text-align:center;text-anchor:middle;fill:#3c2358;stroke-width:1.16848"
           d="m 151.67997,153.72808 v 0.10484 h 0.1363 c 0.34597,0 0.62904,0.27259 0.6605,0.60808 v 5.8711 c 0,0.35646 -0.30404,0.66049 -0.67099,0.66049 h -0.12581 v 0.10485 h 2.28554 v -0.10485 h -0.12581 c -0.36694,0 -0.67098,-0.30403 -0.67098,-0.66049 v -6.25901 h 1.20567 c 0.89115,0 1.3839,0.63953 1.41535,1.60407 0,0.23065 -0.021,0.48226 -0.0734,0.62904 -0.47178,1.49923 -2.19117,1.13228 -2.19117,1.13228 v 0.0944 c 1.31051,0.69195 3.05087,-0.15726 3.05087,-1.75084 0,-1.2581 -0.82825,-2.02344 -2.17021,-2.02344 z"
           id="path47" /><path
           style="font-size:10.4841px;line-height:0;font-family:Cinzel;-inkscape-font-specification:Cinzel;text-align:center;text-anchor:middle;fill:#3c2358;stroke-width:1.16848"
           d="m 131.08688,153.78793 v 0.10484 h 0.12581 c 0.36695,0 0.67099,0.29356 0.67099,0.6605 v 5.81868 c -0.0105,0.36694 -0.30404,0.66049 -0.67099,0.66049 h -0.12581 v 0.10485 h 2.28554 v -0.10485 h -0.13629 c -0.36695,0 -0.6605,-0.30403 -0.67099,-0.66049 v -6.24853 c 0.1363,0 0.77583,-0.021 1.31052,0 0.77582,0.0419 1.26857,0.65002 1.30002,1.60407 0,0.23065 -0.021,0.48227 -0.0734,0.62905 -0.29356,0.94356 -1.09035,1.06937 -1.63552,1.09034 -0.31453,0 -0.55566,0 -0.55566,0 v 0.0944 c 0.38791,0 0.69195,0.36694 0.96454,0.71292 0.0839,0.0944 1.26857,1.81375 1.3839,1.96052 0.325,0.38792 0.84921,0.91212 1.82423,0.91212 h 0.57663 V 161.022 c -0.60808,0 -0.99599,-0.32501 -1.42584,-0.78631 -0.3984,-0.44033 -1.31051,-1.74036 -1.31051,-1.74036 -0.1992,-0.28307 -0.52421,-0.62904 -0.74438,-0.73389 1.00648,0 1.7823,-0.9855 1.7823,-2.00246 0,-1.21615 -0.78631,-1.97101 -2.05488,-1.97101 z"
           id="path44" /><path
           style="font-size:10.4841px;line-height:0;font-family:Cinzel;-inkscape-font-specification:Cinzel;text-align:center;text-anchor:middle;fill:#3c2358;stroke-width:1.16848"
           d="m 126.85843,159.25929 h -0.10484 c -0.325,0.79679 -0.74437,1.37342 -1.85568,1.37342 h -1.50971 v -3.14523 h 1.78229 c 0.28308,0.0105 0.50324,0.24113 0.50324,0.5242 v 0.14678 h 0.10484 v -1.65649 h -0.10484 v 0.15726 c 0,0.28307 -0.23065,0.51372 -0.51372,0.51372 h -1.77181 v -3.23958 h 2.13875 c 0.3355,0.021 0.58711,0.29355 0.58711,0.62904 v 0.17823 l 0.10484,0.0105 v -0.84921 -0.16775 -0.31452 c -0.18871,0.0839 -0.79679,0.18871 -1.2476,0.18871 h -3.06136 v 0.10484 h 0.13629 c 0.34598,0 0.62905,0.27259 0.6605,0.60808 v 5.8711 c 0,0.35646 -0.30404,0.66049 -0.67098,0.66049 h -0.12581 v 0.10485 h 4.34042 z"
           id="path43" /><path
           style="font-size:10.4841px;line-height:0;font-family:Cinzel;-inkscape-font-specification:Cinzel;text-align:center;text-anchor:middle;fill:#3c2358;stroke-width:1.16848"
           d="m 117.71869,161.00709 -0.0105,-0.10484 h -0.12581 c -0.36695,0 -0.67099,-0.29355 -0.67099,-0.65001 v -5.81868 c 0,-0.36694 0.30404,-0.6605 0.67099,-0.6605 h 0.12581 l 0.0105,-0.10484 h -2.29602 v 0.10484 h 0.13629 c 0.35646,0 0.65001,0.29356 0.67098,0.65002 v 2.79925 h -4.29848 v -2.78877 c 0.0105,-0.36694 0.31452,-0.6605 0.67098,-0.6605 h 0.1363 v -0.10484 h -2.28554 v 0.10484 h 0.12581 c 0.36695,0 0.6605,0.29356 0.67099,0.6605 v 5.81868 c 0,0.35646 -0.30404,0.66049 -0.67099,0.66049 h -0.12581 l -0.0105,0.10485 h 2.29602 v -0.10485 h -0.13629 c -0.36695,0 -0.6605,-0.30403 -0.67098,-0.66049 v -2.71539 h 4.29848 v 2.71539 c -0.0105,0.36694 -0.31453,0.66049 -0.67099,0.66049 h -0.13629 v 0.10485 z"
           id="path42" /><path
           style="font-size:10.4841px;line-height:0;font-family:Cinzel;-inkscape-font-specification:Cinzel;text-align:center;text-anchor:middle;fill:#3c2358;stroke-width:1.16848"
           d="m 101.52043,153.7176 c -0.45082,0 -1.06938,-0.10484 -1.25809,-0.18872 v 1.321 h 0.10484 v -0.18871 c 0,-0.3355 0.2621,-0.60808 0.59759,-0.62905 h 1.9815 v 6.29046 c -0.0105,0.35646 -0.30404,0.65001 -0.67098,0.65001 h -0.12581 l -0.0105,0.10485 h 2.29601 v -0.10485 h -0.12581 c -0.36694,0 -0.66049,-0.29355 -0.67098,-0.66049 v -6.27998 h 1.9815 c 0.33549,0.021 0.59759,0.29355 0.59759,0.62905 v 0.18871 h 0.10484 v -1.321 c -0.1992,0.0839 -0.80727,0.18872 -1.25809,0.18872 z"
           id="path41" /><path
           style="font-size:10.4841px;line-height:0;font-family:Cinzel;-inkscape-font-specification:Cinzel;text-align:center;text-anchor:middle;fill:#3c2358;stroke-width:1.16848"
           d="m 90.059317,157.89635 c -0.241134,2.13875 -1.499226,2.88313 -2.987968,2.89361 -1.761329,-0.0524 -2.956517,-1.42584 -2.956517,-3.53314 0,-2.08634 1.17422,-3.48072 3.008937,-3.48072 1.268576,0.0105 2.296018,0.66049 2.610541,1.87665 h 0.08387 l -0.209682,-1.47826 c -0.608078,-0.39839 -1.446806,-0.70243 -2.474248,-0.70243 -2.306502,0 -3.805728,1.53068 -3.805728,3.80573 0,2.31698 1.551647,3.81621 3.742824,3.82669 1.446806,0 2.390375,-0.6605 2.946032,-1.56213 l 0.125809,-1.646 z"
           id="path40" /><path
           style="font-size:10.4841px;line-height:0;font-family:Cinzel;-inkscape-font-specification:Cinzel;text-align:center;text-anchor:middle;fill:#3c2358;stroke-width:1.16848"
           d="m 79.107521,160.90225 h -0.136293 c -0.366944,0 -0.660499,-0.29355 -0.670983,-0.65001 v -5.81868 c 0.01048,-0.36694 0.314523,-0.6605 0.670983,-0.6605 h 0.136293 v -0.10484 h -2.285534 v 0.10484 h 0.125809 c 0.366944,0 0.670983,0.29356 0.670983,0.6605 v 5.81868 c 0,0.35646 -0.304039,0.65001 -0.670983,0.65001 h -0.125809 v 0.10484 h 2.285534 z"
           id="path39" /><path
           style="font-size:10.4841px;line-height:0;font-family:Cinzel;-inkscape-font-specification:Cinzel;text-align:center;text-anchor:middle;fill:#3c2358;stroke-width:1.16848"
           d="m 69.773303,155.83707 c -0.335491,-0.31452 -0.419364,-0.69195 -0.419364,-0.97502 0,-0.62905 0.513721,-1.20567 1.289545,-1.20567 0.650014,0 1.174219,0.40888 1.174219,1.07986 h 0.104841 v -1.15325 -0.12581 H 71.50318 c -0.283071,-0.0629 -0.618562,-0.11533 -0.901633,-0.11533 -1.195187,0 -1.834717,0.89115 -1.834717,1.77182 0,0.40888 0.136293,0.91211 0.566141,1.30002 l 2.002463,1.86617 c 0.262103,0.25162 0.419364,0.56615 0.419364,0.98551 0,0.82824 -0.63953,1.35245 -1.404869,1.40487 -0.933085,0.0419 -1.625036,-0.63953 -1.520195,-1.72988 h -0.08387 c -0.167745,0.47179 -0.199197,1.14277 -0.125809,1.46778 0.40888,0.42985 1.258092,0.57662 1.771813,0.57662 1.205672,0 1.971011,-0.80727 1.971011,-1.96052 0,-0.42985 -0.115325,-0.89115 -0.534689,-1.27906 z"
           id="path38" /><path
           style="font-size:10.4841px;line-height:0;font-family:Cinzel;-inkscape-font-specification:Cinzel;text-align:center;text-anchor:middle;fill:#3c2358;stroke-width:1.16848"
           d="m 62.404016,153.48863 v 0.10484 h 0.167745 c 0.293555,0 0.545173,0.22017 0.555657,0.51372 v 4.13074 c 0,1.4468 -0.933084,2.41134 -2.337954,2.41134 -1.331481,0 -2.222629,-1.01696 -2.222629,-2.54764 v -3.99444 c 0.01048,-0.29355 0.251618,-0.51372 0.545173,-0.51372 h 0.17823 v -0.10484 h -2.128273 v 0.10484 h 0.167746 c 0.304039,0 0.545173,0.22017 0.555657,0.52421 v 4.14122 c 0,1.63552 1.163735,2.72586 2.904096,2.72586 1.698424,0 2.830707,-1.10083 2.830707,-2.74683 v -4.14122 c 0.01048,-0.29356 0.251619,-0.50324 0.545173,-0.50324 h 0.17823 v -0.10484 z"
           id="path37" /><path
           style="font-size:10.4841px;line-height:0;font-family:Cinzel;-inkscape-font-specification:Cinzel;text-align:center;text-anchor:middle;fill:#3c2358;stroke-width:1.16848"
           d="m 51.766739,153.29249 h -0.09436 l -2.86216,6.32191 -2.925064,-6.3324 h -0.09436 l -0.786307,6.7308 c -0.05242,0.40888 -0.387912,0.65001 -0.76534,0.65001 h -0.167745 v 0.10484 h 2.033915 v -0.0944 h -0.167745 c -0.23065,0 -0.429848,-0.22016 -0.40888,-0.45081 l 0.4613,-5.11624 2.68393,5.80819 h 0.09436 c 0.07339,-0.42985 0.356459,-1.06938 0.356459,-1.06938 l 2.212145,-4.89607 0.471785,5.2735 c 0.02097,0.23065 -0.188714,0.45081 -0.40888,0.45081 h -0.167746 v 0.0944 h 2.285534 v -0.10484 h -0.167745 c -0.377428,0 -0.712919,-0.24113 -0.76534,-0.65001 z"
           id="text13" /><text
           xml:space="preserve"
           style="font-style:normal;font-variant:normal;font-weight:normal;font-stretch:normal;font-size:10.8053px;line-height:0;font-family:Cinzel;-inkscape-font-specification:Cinzel;text-align:center;writing-mode:lr-tb;direction:ltr;text-anchor:middle;opacity:1;fill:#3c2358;fill-opacity:1;stroke-width:1.20429;stroke-dasharray:none"
           x="144.36034"
           y="161.04332"
           id="text48"><tspan
             sodipodi:role="line"
             id="tspan48"
             style="stroke-width:1.20429"
             x="144.36034"
             y="161.04332">A</tspan></text></g></g></g></svg>
