<?xml version="1.0" encoding="UTF-8" standalone="no"?>
<!-- Created with Inkscape (http://www.inkscape.org/) -->

<svg
   width="192"
   height="192"
   viewBox="0 0 60.386321 60.386321"
   version="1.1"
   id="svg1"
   xml:space="preserve"
   inkscape:version="1.4.2 (ebf0e940, 2025-05-08)"
   sodipodi:docname="favicon_vector.svg"
   xmlns:inkscape="http://www.inkscape.org/namespaces/inkscape"
   xmlns:sodipodi="http://sodipodi.sourceforge.net/DTD/sodipodi-0.dtd"
   xmlns="http://www.w3.org/2000/svg"
   xmlns:svg="http://www.w3.org/2000/svg"><sodipodi:namedview
     id="namedview1"
     pagecolor="#ffffff"
     bordercolor="#000000"
     borderopacity="0.25"
     inkscape:showpageshadow="2"
     inkscape:pageopacity="0.0"
     inkscape:pagecheckerboard="0"
     inkscape:deskcolor="#d1d1d1"
     inkscape:document-units="mm"
     inkscape:zoom="2.5998679"
     inkscape:cx="80.965653"
     inkscape:cy="94.235558"
     inkscape:window-width="1360"
     inkscape:window-height="835"
     inkscape:window-x="0"
     inkscape:window-y="25"
     inkscape:window-maximized="0"
     inkscape:current-layer="layer1" /><defs
     id="defs1"><inkscape:path-effect
       effect="mirror_symmetry"
       start_point="511.30605,186.18456"
       end_point="511.30605,837.20942"
       center_point="511.30605,511.69699"
       id="path-effect9"
       is_visible="true"
       lpeversion="1.2"
       lpesatellites=""
       mode="free"
       discard_orig_path="false"
       fuse_paths="true"
       oposite_fuse="false"
       split_items="false"
       split_open="false"
       link_styles="false" /><inkscape:path-effect
       effect="fillet_chamfer"
       id="path-effect2"
       is_visible="true"
       lpeversion="1"
       nodesatellites_param="F,0,0,1,0,0,0,1 @ F,0,0,1,0,0,0,1 @ F,0,0,1,0,0,0,1 @ F,0,0,1,0,0,0,1 @ F,0,0,1,0,0,0,1 @ F,0,0,1,0,0,0,1 @ F,0,0,1,0,0,0,1 @ F,0,0,1,0,0,0,1 @ F,0,0,1,0,0,0,1 @ F,0,0,1,0,0,0,1 @ F,0,0,1,0,0,0,1"
       radius="0"
       unit="px"
       method="auto"
       mode="F"
       chamfer_steps="1"
       flexible="false"
       use_knot_distance="true"
       apply_no_radius="true"
       apply_with_radius="true"
       only_selected="false"
       hide_knots="false" /></defs><g
     inkscape:label="Layer 1"
     inkscape:groupmode="layer"
     id="layer1"><circle
       style="fill:#fbf6ec;fill-opacity:1;stroke-width:1.02823"
       id="path9"
       cx="30.02714"
       cy="30.206944"
       r="30.02714" /><g
       id="g1"
       transform="matrix(0.08205885,0,0,0.08205885,-11.715172,-12.483288)"><path
         d="m 555,631.99686 c -8.44488,1.42758 -15.48709,-0.59 -19.53846,-6.07693 -5.26919,-7.13627 -1.51048,-17.85857 -0.0738,-26.61224 1.44325,-8.79367 5.19065,-15.95502 8.61538,-25.30769 6.39434,-14.41263 13.90069,-28.36466 27,-40 9.49802,-8.87856 19.51345,-16.50797 30,-23 8.57142,-4.36801 16.55126,-7.7027 27,-10 7.19865,-0.35989 15.15513,-0.87355 20.99944,1.99972 0,0 0.097,-39.12826 0,-58.69203 -0.10256,-20.69316 -0.52788,-41.38397 -0.61538,-62.0772 -0.075,-17.74336 0.0167,-35.48708 0.0775,-53.23049 0.0814,-23.76944 -0.75653,-47.56552 0.38461,-71.30769 0.55746,-11.5984 0.49914,-23.63577 0.0769,-35.61539 9.66147,7.92401 12.77326,10.48082 18.68888,16.23363 8.93503,8.68911 16.71656,18.49384 25.29751,27.5328 8.53725,8.99294 17.36977,17.70091 26.04804,26.55785 8.68297,8.86175 18.92401,16.43216 26.03565,26.59824 4.87174,6.96415 8.31419,14.93847 11.00146,23.00146 2.68661,8.061 4.55213,16.511 4.9963,24.9963 0.75254,14.37638 0.65876,30.0461 -3.9972,43.0028 -4.56723,14.08709 -11.92454,27.01848 -23.99686,37.99686 -5.31537,4.39126 -11.19746,8.76772 -16.99686,7.00314 9.88661,-8.11397 13.42005,-18.85951 16,-30 3.75304,-11.52613 1.45192,-25.54487 1.45841,-38.61852 C 733.13557,380.51541 733.10387,372.40451 730.00314,366 726.10877,353.90046 718.30555,342.08068 707,333.99686 697.08286,326.18786 685.22075,323.05797 674.99686,316 c 0.43109,18.9833 0.39407,37.30663 1.17571,56.43514 0,0 6.48909,104.43382 -2.17571,155.56486 -1.23283,7.27493 -4.01103,14.25385 -7,21 -4.95756,11.1893 -10.48593,22.33995 -18,32 -5.9342,7.62897 -13.39116,14.03287 -20.99686,19.99686 -7.64133,5.99192 -15.1604,10.17551 -24.5416,15.69545 -9.08581,5.06898 -18.08852,9.16062 -28.69231,12.53846 -7.2903,1.34878 -12.17699,2.07451 -19.76609,2.76609 z"
         fill="#3c2358"
         stroke="none"
         id="path1"
         sodipodi:nodetypes="caacccccsssscaaaaaacccccccccaaaaccc" /><path
         d="m 511.03319,644.90674 c -13.38075,-0.41977 -20.58155,-13.29135 -31.64543,-23.21443 -13.86857,-18.27196 -26.03067,-37.96866 -35.00314,-59.00314 -7.32981,-17.18354 -11.28367,-35.69183 -15,-54 -1.53782,-7.57593 -2.62492,-15.27538 -2.99686,-22.99686 -0.96281,-19.98793 0.0175,-40.08734 2,-60 0.80351,-8.07045 2.04498,-16.12881 4,-24 2.03273,-8.18408 4.98735,-16.12377 8,-24 3.89357,-10.17929 7.81444,-20.35301 13,-30 5.14774,-10.21495 10.84473,-20.20239 17,-30 14.67655,-22.49524 27.84148,-37.8435 39.99686,-46.99686 12.06807,9.01951 21.00226,21.74384 29.9979,32.9979 17.62815,24.5783 26.66133,42.10998 35.99196,61.99196 3.89425,9.10033 7.45505,18.33879 9.9986,27.9986 4.45162,15.40354 6.57937,30.27799 7.99888,47.99888 0.87872,10.96986 1.69128,22.0166 0.99986,32.99986 -0.40301,6.4018 -0.15476,13.25597 -2.99034,19.00966 -4.06426,8.24682 -12.90654,12.7653 -18.99686,19.99686 -9.40172,7.04999 -17.89393,17.0292 -25.00314,26.00314 -9.87781,14.15075 -19.11462,28.08055 -23,59 -1.42388,9.75656 -1.62856,20.75407 0.99972,29.99972 1.00052,5.47709 1.14362,10.03077 -2.99972,12.00028 -2.32518,2.02833 -6.04581,3.3051 -12.34829,4.21443 z"
         fill="#3c2358"
         stroke="none"
         id="path2"
         sodipodi:nodetypes="ccaaaaaaccccccaaacccccc" /><path
         d="m 475,638.99686 c -4.55165,-1.30629 -17.45311,-7.04417 -26,-11 -10.60154,-5.68582 -21.18698,-11.41052 -31,-19 C 407.46025,601.63683 397.83062,592.07959 388.00314,583 383.01155,576.1903 376.4225,570.04229 372,562.99686 c -8.72714,-11.03214 -16.28627,-22.54809 -24,-34 -5.27759,-9.21835 -11.2244,-18.1595 -15,-28 -4.90774,-8.95585 -8.29747,-18.54049 -11.99686,-27.99686 -2.99113,-9.19894 -5.90009,-18.43191 -8,-28 -1.74117,-9.49922 -3.21151,-19.27593 -4.00314,-29.00314 -1.06754,-13.1174 -1.66499,-26.32592 -0.99686,-39.46972 0.40135,-7.89569 1.11343,-13.56543 3,-23.52714 1.88657,-9.96171 1.78503,-10.03226 6.99658,-8.99714 7.68666,1.14603 14.87879,3.33966 21.99916,5.99916 9.35671,3.49479 18.3671,7.77627 26.99818,12.99818 10.15659,5.34231 19.38869,12.91653 27.99692,21.99692 5.54752,4.51572 12.0043,12.45806 17.00406,19.00406 3.20581,5.10807 5.6564,10.30957 6.69045,15.99588 1.13406,6.23623 -0.69289,12.39169 -0.69163,19.00294 -0.81345,7.28045 -1.5471,13.65809 -2,20 -0.25726,15.38257 0.01,30.54804 1.99972,44.99972 0.60399,8.63659 2.74877,16.63496 4.00244,25.00244 2.80749,7.80172 3.7281,16.38501 6.99602,23.99602 3.00277,10.07894 7.3683,19.59341 11.99832,28.99832 5.37814,10.25639 12.02452,19.98265 17.99748,29.99748 5.35993,8.98696 20.5608,28.30916 16.00916,27.00288 z"
         fill="#3c2358"
         stroke="none"
         id="path3"
         sodipodi:nodetypes="sccccccccaazcacccaccccccas" /><path
         d="m 463,654.99686 c -13.85184,0.58511 -26.90046,-0.76891 -40,-2 -8.18208,-1.6985 -16.81665,-2.30457 -25,-4 -8.16103,-1.61123 -15.95621,-4.10573 -24,-6 -9.59815,-3.49875 -19.50169,-6.21348 -29,-10 -11.22404,-4.47448 -22.60573,-8.8389 -33,-15 -11.46981,-6.79862 -21.92728,-15.26398 -32,-24 -11.03986,-9.57482 -21.65481,-19.7651 -31,-31 C 240.72319,553.04637 233.47206,542.2103 227.00314,531 223.12738,524.28351 220.13116,517.09112 217,509.99686 213.07647,501.10732 209.07875,492.2173 206.00314,483 203.09958,474.29832 200.25401,464.83455 199,456.386 c -0.80498,-9.07585 -0.82188,-8.77535 11.78657,-8.25315 6.93205,0.28711 11.93547,1.26967 17.866,2.17558 7.67778,1.1728 15.39479,2.27814 22.91573,4.21701 10.04738,2.59017 20.26862,5.17448 29.52174,9.86902 11.62394,5.89738 21.02285,9.96974 31.90682,22.60554 6.73784,8.9779 9.66714,19.42776 13.99804,27.99804 5.28348,10.55806 10.02713,18.26279 15.99776,26.99776 6.34247,9.93905 13.21674,19.65783 21.00006,29.00006 10.08966,13.41919 22.81104,26.76893 35.9951,37.9951 11.46935,9.61045 23.48312,17.45911 35.9965,24.9965 9.32181,5.61496 18.53743,8.80245 28.9979,14.9979 8.91047,4.42806 6.21079,4.03686 -1.98222,6.0115 z"
         fill="#3c2358"
         stroke="none"
         id="path4"
         sodipodi:nodetypes="ccccaaaaaaacsaaacccccacc" /><path
         d="m 587.69231,655.07378 c -9.22885,0.40544 -17.81128,0.0278 -27.69231,-1.07692 -4.85904,-0.54328 -26.57527,-4.51536 -12.29833,-7.99372 12.02361,-2.32443 23.88106,-5.45801 35.65842,-8.98689 11.16631,-3.28384 21.64156,-8.07137 32.03114,-13.4156 13.52194,-6.89166 25.14575,-16.48687 35.55277,-27.54151 6.38445,-5.64254 10.88924,-12.47093 16.05914,-19.05914 6.26216,-11.09233 11.73441,-23.06616 14.81225,-35.39691 4.99359,-10.87499 3.09102,-22.98903 9.70507,-32.73645 4.70579,-7.59167 10.32578,-12.46983 16.47954,-18.8635 8.47557,-6.0151 17.15268,-13.1065 26.35362,-18.35338 11.78325,-6.33297 24.17443,-11.98532 37.00131,-15.63166 32.46902,-8.96548 23.63893,-6.79449 52.258,-7.37618 -0.60205,17.0743 -3.55438,28.38593 -11.2567,49.45173 -6.72536,14.24154 -20.849,38.34618 -30.41244,50.87671 -9.25055,13.40423 -19.43379,26.17617 -31.36653,37.44924 -4.67737,5.06229 -10.12181,8.94773 -15.24279,13.29191 -9.37662,8.3259 -19.58648,15.19736 -30.33447,21.28535 -9.8764,5.59429 -20.48706,9.84656 -31.10821,13.85036 -11.85348,4.46834 -24.01283,8.15487 -36.2821,11.30701 -11.07345,2.84491 -22.3296,4.9787 -33.60969,6.84263 -5.40649,0.89337 -10.83317,1.83642 -16.30769,2.07692 z"
         fill="#3c2358"
         stroke="none"
         id="path5"
         sodipodi:nodetypes="ascccccccccccccccaaaaa" /><path
         d="m 343,729.99686 c -14.37433,0.23706 -28.62606,0.17811 -42,-2 -7.66257,-1.67655 -15.37554,-3.23144 -23,-5 -8.80648,-2.66247 -17.48158,-5.6421 -26,-9 -9.20255,-3.84433 -18.512,-7.4306 -27,-13 -7.61783,-4.64293 -15.45142,-8.76495 -21.99686,-15.99686 10.87916,-10.4298 22.30855,-19.53123 34,-28 11.34983,-8.56965 23.41098,-15.42201 36,-21 7.77657,-3.20607 14.61323,-5.92752 24,-8 8.75669,-3.29976 15.95878,3.03631 23.99574,7.00202 9.49921,4.68723 19.06491,9.31915 28.99818,12.99818 8.80197,3.26003 17.93018,5.57792 26.99888,7.99888 6.95194,1.85587 13.91891,3.71798 20.9993,4.9993 7.93324,1.43566 15.99306,2.05453 23.99958,2.99958 5.9952,0.70765 11.96836,1.74301 17.99972,1.99972 12.99535,0.55311 26.17997,-0.24514 39.0086,-0.99768 5.67147,-0.83586 -0.71584,7.64804 -4.00628,10 -11.00464,11.06968 -23.5785,18.35092 -36,26 -11.17227,5.71859 -22.1498,11.90734 -33.99686,15.99686 -8.60253,3.62624 -18.04482,5.22512 -27,8 -9.7558,2.86602 -21.76632,4.8973 -35,5 z"
         fill="#3c2358"
         stroke="none"
         id="path6"
         sodipodi:nodetypes="cccccccccsaaaaacccccc" /><path
         d="m 689.46154,730.76609 c -11.22372,-0.12271 -22.38345,-1.9629 -33.46154,-3.76923 -9.4208,-1.5361 -18.88945,-3.15238 -28,-6 -8.27201,-2.58552 -16.14437,-6.33938 -24,-10 -9.86476,-4.59684 -19.75062,-9.26473 -29,-15 -10.53907,-6.53497 -20.8025,-13.68232 -30,-22 -3.32499,-3.00693 -10.88579,-5.8447 -9,-9.99372 17.96183,1.22983 36.67965,1.71072 55.00314,0.99686 6.94983,-0.27076 13.88766,-0.99132 20.76923,-2 6.80025,-0.99676 13.52701,-2.46764 20.22763,-3.99686 9.06449,-2.0687 18.12939,-4.21491 27,-7 9.15802,-2.87533 18.1123,-6.38515 27.00314,-10.00314 9.12118,-3.71172 17.23972,-10.66605 26.99686,-11.99686 9.0145,-1.22952 18.28344,1.39031 26.9993,3.9993 9.85728,2.95066 19.02473,7.96334 27.99818,12.99818 10.48025,5.88028 20.4182,12.74075 29.9972,19.9972 7.34978,5.56773 14.30041,11.27971 21.00218,18.00218 -9.76437,9.5081 -20.53119,15.99218 -31.99686,21.99686 -9.15993,4.79714 -19.18088,7.77205 -29.00314,11.00314 -8.22048,2.70418 -16.55291,5.11971 -25,7 -7.91542,1.76194 -15.95372,2.96435 -23.99686,3.99686 -6.48624,0.83265 -12.99938,1.84072 -19.53846,1.76923 z"
         fill="#3c2358"
         stroke="none"
         id="path7"
         sodipodi:nodetypes="aaaaaacaaaaaaaaacaaaaa" /><path
         d="m 511,807.99686 c -9.65739,-8.97758 -20.45505,-17.29586 -28.53846,-27.84615 -7.01106,-9.15068 -12.28995,-15.60957 -16.87905,-26.18455 -3.0066,-6.92833 -6.89924,-18.03211 -6.89018,-25.58468 0.012,-10.04618 4.12156,-20.04106 9.23391,-28.68917 4.77139,-8.07132 11.23335,-12.78716 19.30455,-20.4584 8.59453,-6.92033 22.38462,-14.46154 22.38462,-14.46154 0,0 13.34277,6.06751 22.5349,14.22721 9.80739,8.06113 15.56906,13.89856 22.46196,22.07734 4.53503,7.67355 8.58116,16.41084 8.30713,26.07637 -1.12796,7.74961 -0.54313,12.9501 -5.69175,23.38517 -5.51121,10.51549 -10.15104,19.77881 -18.05506,29.46154 -8.6114,9.34276 -19.31092,18.74613 -28.17257,27.99686 z"
         fill="#3c2358"
         stroke="none"
         id="path8"
         sodipodi:nodetypes="csssacccccccc" /></g></g></svg>
