<?xml version="1.0" encoding="UTF-8" standalone="no"?>
<!-- Created with Inkscape (http://www.inkscape.org/) -->

<svg
   width="1931.8993"
   height="1874.3561"
   viewBox="0 0 511.14835 495.92337"
   version="1.1"
   id="svg1"
   xml:space="preserve"
   inkscape:version="1.4.2 (ebf0e940, 2025-05-08)"
   sodipodi:docname="intune_logo_portrait.svg"
   xmlns:inkscape="http://www.inkscape.org/namespaces/inkscape"
   xmlns:sodipodi="http://sodipodi.sourceforge.net/DTD/sodipodi-0.dtd"
   xmlns:xlink="http://www.w3.org/1999/xlink"
   xmlns="http://www.w3.org/2000/svg"
   xmlns:svg="http://www.w3.org/2000/svg"><sodipodi:namedview
     id="namedview1"
     pagecolor="#ffffff"
     bordercolor="#000000"
     borderopacity="0.25"
     inkscape:showpageshadow="2"
     inkscape:pageopacity="0.0"
     inkscape:pagecheckerboard="0"
     inkscape:deskcolor="#d1d1d1"
     inkscape:document-units="mm"
     inkscape:zoom="0.45"
     inkscape:cx="394.44444"
     inkscape:cy="958.88889"
     inkscape:window-width="2056"
     inkscape:window-height="1148"
     inkscape:window-x="1663"
     inkscape:window-y="130"
     inkscape:window-maximized="0"
     inkscape:current-layer="layer1"
     showgrid="false"
     showguides="true"
     inkscape:lockguides="true"><inkscape:grid
       id="grid1"
       units="mm"
       originx="-10.221922"
       originy="-17.602491"
       spacingx="0.99999998"
       spacingy="0.99999998"
       empcolor="#0099e5"
       empopacity="0.30196078"
       color="#0099e5"
       opacity="0.14901961"
       empspacing="5"
       enabled="true"
       visible="false" /></sodipodi:namedview><defs
     id="defs1"><linearGradient
       id="linearGradient241"
       inkscape:collect="always"><stop
         style="stop-color:#3c1f5c;stop-opacity:1;"
         offset="0.25773197"
         id="stop242" /><stop
         style="stop-color:#3c1f5c;stop-opacity:0.09;"
         offset="1"
         id="stop243" /></linearGradient><linearGradient
       id="linearGradient227"
       inkscape:collect="always"><stop
         style="stop-color:#3c1f5c;stop-opacity:0;"
         offset="0.24948454"
         id="stop228" /><stop
         style="stop-color:#3c1f5c;stop-opacity:1;"
         offset="0.50103092"
         id="stop227" /></linearGradient><linearGradient
       id="linearGradient225"
       inkscape:collect="always"><stop
         style="stop-color:#3c1f5c;stop-opacity:0;"
         offset="0.24948454"
         id="stop226" /><stop
         style="stop-color:#3c1f5c;stop-opacity:1;"
         offset="0.49484539"
         id="stop225" /></linearGradient><inkscape:path-effect
       effect="mirror_symmetry"
       start_point="511.30605,186.18456"
       end_point="511.30605,837.20942"
       center_point="511.30605,511.69699"
       id="path-effect9"
       is_visible="true"
       lpeversion="1.2"
       lpesatellites=""
       mode="free"
       discard_orig_path="false"
       fuse_paths="true"
       oposite_fuse="false"
       split_items="false"
       split_open="false"
       link_styles="false" /><inkscape:path-effect
       effect="fillet_chamfer"
       id="path-effect2"
       is_visible="true"
       lpeversion="1"
       nodesatellites_param="F,0,0,1,0,0,0,1 @ F,0,0,1,0,0,0,1 @ F,0,0,1,0,0,0,1 @ F,0,0,1,0,0,0,1 @ F,0,0,1,0,0,0,1 @ F,0,0,1,0,0,0,1 @ F,0,0,1,0,0,0,1 @ F,0,0,1,0,0,0,1 @ F,0,0,1,0,0,0,1 @ F,0,0,1,0,0,0,1 @ F,0,0,1,0,0,0,1"
       radius="0"
       unit="px"
       method="auto"
       mode="F"
       chamfer_steps="1"
       flexible="false"
       use_knot_distance="true"
       apply_no_radius="true"
       apply_with_radius="true"
       only_selected="false"
       hide_knots="false" /><linearGradient
       inkscape:collect="always"
       xlink:href="#linearGradient225"
       id="linearGradient226"
       x1="677.45959"
       y1="820.95258"
       x2="677.45959"
       y2="537.87799"
       gradientUnits="userSpaceOnUse" /><linearGradient
       inkscape:collect="always"
       xlink:href="#linearGradient227"
       id="linearGradient228"
       x1="342.06171"
       y1="819.75427"
       x2="342.06171"
       y2="541.63708"
       gradientUnits="userSpaceOnUse" /><linearGradient
       inkscape:collect="always"
       xlink:href="#linearGradient241"
       id="linearGradient243"
       x1="511.30582"
       y1="683.00745"
       x2="511.30582"
       y2="788.16626"
       gradientUnits="userSpaceOnUse" /><filter
       y="-0.53003466"
       height="2.0600693"
       inkscape:menu-tooltip="Darkens the edge with an inner blur and adds a flexible glow"
       inkscape:menu="Shadows and Glows"
       inkscape:label="Dark and Glow"
       style="color-interpolation-filters:sRGB"
       id="filter252"
       x="-0.077644765"
       width="1.1552895"><feGaussianBlur
         stdDeviation="5"
         result="result6"
         id="feGaussianBlur251" /><feComposite
         result="result8"
         in="SourceGraphic"
         operator="atop"
         in2="result6"
         id="feComposite251" /><feComposite
         result="result9"
         operator="over"
         in2="SourceAlpha"
         in="result8"
         id="feComposite252" /><feColorMatrix
         values="1 0 0 0 0 0 1 0 0 0 0 0 1 0 0 0 0 0 1 0 "
         result="result10"
         id="feColorMatrix252" /><feBlend
         in="result10"
         mode="normal"
         in2="result6"
         id="feBlend252" /></filter><filter
       style="color-interpolation-filters:sRGB"
       inkscape:label="Drop Shadow"
       id="filter278"
       x="-0.07919766"
       y="-0.54063535"
       width="1.1778065"
       height="2.2137794"><feFlood
         result="flood"
         in="SourceGraphic"
         flood-opacity="0.498039"
         flood-color="rgb(0,0,0)"
         id="feFlood277" /><feGaussianBlur
         result="blur"
         in="SourceGraphic"
         stdDeviation="5.100000"
         id="feGaussianBlur277" /><feOffset
         result="offset"
         in="blur"
         dx="3.000000"
         dy="3.000000"
         id="feOffset277" /><feComposite
         result="comp1"
         operator="in"
         in="offset"
         in2="flood"
         id="feComposite277" /><feComposite
         result="comp2"
         operator="over"
         in="SourceGraphic"
         in2="comp1"
         id="feComposite278" /></filter><filter
       inkscape:menu-tooltip="In and out glow with a possible offset and colorizable flood"
       inkscape:menu="Shadows and Glows"
       inkscape:label="Cutout Glow"
       style="color-interpolation-filters:sRGB"
       id="filter307"
       x="-0.04658686"
       y="-0.31802082"
       width="1.1125849"
       height="1.7685503"><feOffset
         dy="3"
         dx="3"
         id="feOffset307" /><feGaussianBlur
         stdDeviation="3"
         result="blur"
         id="feGaussianBlur307" /><feFlood
         flood-color="rgb(0,0,0)"
         flood-opacity="1"
         result="flood"
         id="feFlood307" /><feComposite
         in="flood"
         in2="SourceGraphic"
         operator="in"
         result="composite"
         id="feComposite307" /><feBlend
         in="blur"
         in2="composite"
         mode="normal"
         id="feBlend307" /></filter><filter
       style="color-interpolation-filters:sRGB"
       inkscape:label="Drop Shadow"
       id="filter366"
       x="-0.021999352"
       y="-0.1501765"
       width="1.0375283"
       height="1.2561834"><feFlood
         result="flood"
         in="SourceGraphic"
         flood-opacity="0.498039"
         flood-color="rgb(0,0,0)"
         id="feFlood365" /><feGaussianBlur
         result="blur"
         in="SourceGraphic"
         stdDeviation="1.000000"
         id="feGaussianBlur365" /><feOffset
         result="offset"
         in="blur"
         dx="-1.000000"
         dy="-1.000000"
         id="feOffset365" /><feComposite
         result="comp1"
         operator="in"
         in="offset"
         in2="flood"
         id="feComposite365" /><feComposite
         result="comp2"
         operator="over"
         in="SourceGraphic"
         in2="comp1"
         id="feComposite366" /></filter></defs><g
     inkscape:label="Layer 1"
     inkscape:groupmode="layer"
     id="layer1"
     transform="translate(-10.221922,-17.602492)"><g
       id="g1"
       transform="matrix(0.81377793,0,0,0.79982936,-150.44739,-158.32075)"><path
         d="m 555,631.99686 c -20.59006,4.73272 -21.72175,-20.96783 -18.23665,-34.74079 6.34615,-30.80167 24.19879,-58.98726 50.33136,-76.73676 16.6961,-12.70717 38.0593,-25.43095 59.59761,-18.52094 4.86149,0.95295 1.78452,-6.63632 2.31026,-15.83882 V 368.99972 c 0.43047,-22.26881 0.33549,-44.7909 0.96224,-67.17092 -0.21687,-26.31089 1.25657,-52.56375 2.03832,-78.8288 14.08429,-9.36994 15.94992,3.85111 31.71259,26.06559 16.19214,22.41269 25.70047,32.15162 42.36233,49.84251 15.26878,14.1328 29.05203,31.03865 32.58938,52.13667 5.99284,31.12092 2.72624,66.67522 -19.69494,90.89052 -3.74813,5.51643 -20.89894,16.39451 -21.18875,11.51305 15.54498,-16.02014 17.69325,-40.274 17.23955,-61.53772 -0.79402,-25.78745 -28.30988,-55.59418 -37.78108,-64.12654 -9.4712,-8.53236 -22.74513,-20.93571 -22.25848,-1.02435 -1.83378,54.05218 -0.64928,108.16538 -0.98688,162.25035 -0.46633,13.85863 0.95625,27.97837 -0.75402,41.66503 -3.30626,15.2693 -10.78672,29.33174 -18.33696,42.90853 -18.41288,25.139 -46.05124,42.53451 -75.31179,52.50464 -8.06422,2.66822 -14.76731,4.90368 -24.59409,5.90858 z"
         fill="#3c2358"
         stroke="none"
         id="path1"
         sodipodi:nodetypes="cccccccccccccczcccccc" /><path
         d="m 516,644.99686 c -17.8279,1.25769 -28.88177,-16.23045 -39.45056,-27.8401 -32.26456,-41.5334 -50.70364,-93.94959 -49.56767,-146.62272 -1.4938,-36.23979 4.34423,-72.83542 19.20073,-106.05702 15.42861,-34.58611 35.56892,-67.81327 63.8175,-93.47388 15.34905,9.84289 25.12401,26.08071 36.06544,40.25935 25.39731,37.29113 46.36191,79.84732 47.92322,125.72931 1.74445,13.70332 1.19262,27.79189 1.24466,41.46642 1.66313,15.58798 -8.53096,27.04335 -20.87621,34.71914 -22.62073,19.35996 -41.63072,44.88491 -46.63807,74.85401 -4.28631,16.44409 -2.16743,33.40022 0.42067,49.46348 -2.44093,4.3088 -8.24593,4.99554 -12.13971,7.50201 z"
         fill="#3c2358"
         stroke="none"
         id="path2"
         inkscape:path-effect="#path-effect2"
         inkscape:original-d="m 516,644.99686 c -17.8279,1.25769 -28.88177,-16.23045 -39.45056,-27.8401 -32.26456,-41.5334 -50.70364,-93.94959 -49.56767,-146.62272 -1.4938,-36.23979 4.34423,-72.83542 19.20073,-106.05702 15.42861,-34.58611 35.56892,-67.81327 63.8175,-93.47388 15.34905,9.84289 25.12401,26.08071 36.06544,40.25935 25.39731,37.29113 46.36191,79.84732 47.92322,125.72931 1.74445,13.70332 1.19262,27.79189 1.24466,41.46642 1.66313,15.58798 -8.53096,27.04335 -20.87621,34.71914 -22.62073,19.35996 -41.63072,44.88491 -46.63807,74.85401 -4.28631,16.44409 -2.16743,33.40022 0.42067,49.46348 -2.44093,4.3088 -8.24593,4.99554 -12.13971,7.50201 z" /><path
         d="m 475,638.99686 c -33.87685,-11.69757 -64.6862,-32.2146 -88.93624,-58.52253 -19.73262,-23.29078 -37.71716,-48.37229 -51.52927,-75.65965 -14.04413,-29.07712 -24.5522,-60.50029 -26.07787,-92.94366 -1.432,-13.92356 0.14821,-27.9194 -0.45348,-41.87102 2.10481,-14.50883 -1.33559,-33.38745 14.2228,-25.11705 10.06703,3.2417 25.53274,9.92882 40.85948,18.40814 15.32674,8.47932 33.12033,20.1221 48.91262,40.71009 11.5037,12.0147 5.77392,27.81822 4.86024,42.33787 -0.62192,12.74007 -1.47162,25.5069 -0.58445,38.32456 1.59827,34.70399 10.22244,69.12722 25.87248,100.13757 9.02497,16.9142 20.03468,32.52315 31.08419,48.13813 0.26842,1.76876 4.39492,4.66562 1.7695,6.05755 z"
         fill="#3c2358"
         stroke="none"
         id="path3"
         sodipodi:nodetypes="cccccczcccccc" /><path
         d="m 463,654.99686 c -26.43089,0.47089 -52.9684,-2.83173 -78.58777,-9.28811 -35.25709,-9.89838 -71.22477,-22.09302 -99.09615,-46.84109 -25.94902,-21.87409 -49.22928,-47.75201 -63.78254,-78.68914 -10.26856,-21.26456 -18.84999,-43.51331 -24.09723,-66.55248 2.34504,-9.58435 17.74357,-3.65845 25.83271,-4.53398 14.61617,1.01705 29.17309,4.99933 43.11467,9.77048 16.99806,6.32902 34.41809,14.2362 46.61317,28.13746 5.15058,11.28844 10.12676,22.63912 16.52075,33.25765 18.46842,31.76826 40.34674,62.15477 68.00415,86.60402 18.08194,15.54598 39.86849,27.58872 60.53395,37.59451 6.31152,3.26626 22.30428,8.65392 4.94429,10.54068 z"
         fill="#3c2358"
         stroke="none"
         id="path4"
         sodipodi:nodetypes="cccccccccccc" /><path
         d="m 596,653.99686 c -14.25107,1.22391 -34.06974,1.62841 -50.49083,-2.81157 -5.5897,-7.51092 2.23415,-3.38056 22.25442,-9.51598 20.02027,-6.13542 63.15429,-22.02091 85.49673,-47.99628 18.66985,-18.66783 29.00683,-44.51614 31.84272,-70.50297 3.95372,-19.77623 22.06448,-32.03545 36.9713,-43.6478 24.02777,-16.38852 52.14976,-26.61405 80.92566,-30.51912 8.91516,-0.58807 29.36477,-3.92747 20.27627,11.23939 -8.73824,36.20515 -26.18567,70.10506 -49.10162,99.38045 -14.56271,19.60716 -23.43553,31.3899 -36.01421,41.83333 -10.52577,8.73901 -23.64647,16.54019 -44.8675,27.20346 C 665.53041,639.66892 623.08407,652.60432 596,653.99686 Z"
         fill="#3c2358"
         stroke="none"
         id="path5"
         sodipodi:nodetypes="cczccccccscc" /><path
         d="m 346.02697,732.62036 c -10.69799,0.52019 -21.41244,-1.17028 -32.02697,-2.6235 -10.59504,-1.45055 -21.08269,-2.95531 -31.51141,-6.0722 -11.13345,-2.54667 -21.4514,-6.33547 -31.95031,-10.51639 -11.80205,-4.5031 -22.91781,-10.2471 -33.42735,-17.15596 -5.19491,-3.08509 -9.97273,-6.67386 -14.10779,-11.25231 6.6629,-6.32438 13.40965,-12.47332 20.84674,-17.84674 8.25687,-7.23229 17.23659,-13.11975 26.31646,-19.22908 10.77198,-6.22516 22.38582,-11.18724 33.83366,-15.92104 12.05347,-4.73598 19.58116,-4.62152 33.77785,1.66034 10.1149,5.50108 20.53488,9.48837 31.08046,13.68756 11.26703,4.45444 23.0494,8.09566 34.96275,10.68489 11.25675,2.56506 21.34062,4.03907 33.71144,5.9441 8.98186,0.89075 18.23303,1.84613 27.46204,2.01765 8.96736,0.15496 13.4634,-0.17789 23.83145,-0.4336 4.90097,0.0215 17.21172,-2.07934 10.17005,5.33336 -7.73672,8.58764 -17.0711,15.30453 -26.48001,21.75339 -9.06651,6.21418 -18.76955,11.48902 -28.67965,16.18415 -10.58209,5.0135 -21.66956,8.86756 -32.70999,12.72451 -7.38232,2.579 -14.80682,5.09899 -22.3957,6.95642 -7.47325,1.82913 -15.02604,3.73112 -22.70372,4.10445 z"
         fill="#3c2358"
         stroke="none"
         id="path6"
         style="opacity:0.5;fill:url(#linearGradient228);fill-opacity:1"
         sodipodi:nodetypes="aaccccccccccccccaaaaa" /><path
         d="m 703,729.99686 c -16.94247,0.31934 -34.01801,0.19126 -50.63612,-3.42137 -13.00284,-2.50847 -25.7467,-5.87854 -38.03819,-10.78282 -21.87205,-8.96321 -42.83169,-20.57432 -61.61654,-35.04186 -4.80211,-5.38382 -20.30258,-11.05228 -16.05939,-15.84648 6.26755,-7.08144 19.16144,-3.16682 28.63123,-2.49032 12.00715,0.85777 23.54338,2.34538 35.54777,1.16501 20.92821,-2.05783 41.58007,-6.44132 61.6229,-12.64216 17.46567,-5.40352 36.09904,-14.74967 53.23898,-20.93372 12.36153,-4.46001 22.26907,3.81225 33.86148,7.94291 26.08489,10.64052 49.26382,27.57418 69.44474,47.05395 -16.12688,15.96516 -37.32102,25.14926 -58.36982,32.69898 -16.23167,6.98232 -33.93607,10.09963 -51.38291,12.22699 -2.07744,0.139 -4.16439,0.20029 -6.24413,0.0709 z"
         fill="#3c2358"
         stroke="none"
         id="path7"
         style="opacity:0.5;fill:url(#linearGradient226);fill-opacity:1"
         sodipodi:nodetypes="scccsssssccccss" /><path
         d="m 510.58008,663.17969 c -1.69687,-0.0483 -3.43773,0.7595 -5.58008,2.82422 -5.0062,4.82478 -12.14737,9.35719 -19.95117,15.35351 -7.8038,5.99632 -17.62589,14.19058 -22.04492,22.64258 -4.41904,8.45199 -4.66224,15.73062 -4.00391,24.99609 0.65832,9.26547 1.22273,14.93096 9,29 3.85105,6.96653 11.18984,18.26097 18.89648,26.90625 7.85706,8.81402 24.10352,23.09375 24.10352,23.09375 0,0 0.10677,-0.0902 0.30664,-0.26172 0.19987,0.17148 0.30469,0.26172 0.30469,0.26172 0,0 16.24841,-14.27973 24.10547,-23.09375 7.70664,-8.64528 15.04348,-19.93972 18.89453,-26.90625 7.77727,-14.06904 8.34168,-19.73453 9,-29 0.65833,-9.26547 0.41708,-16.5441 -4.00196,-24.99609 -4.41903,-8.452 -14.24307,-16.64626 -22.04687,-22.64258 -7.8038,-5.99632 -14.94497,-10.52873 -19.95117,-15.35351 -2.4484,-2.35968 -4.37159,-3.07727 -6.30469,-2.75196 -0.24164,-0.0407 -0.48415,-0.0654 -0.72656,-0.0723 z"
         fill="#3c2358"
         stroke="none"
         id="path8"
         style="opacity:0.29;fill:url(#linearGradient243);fill-opacity:1"
         sodipodi:nodetypes="csszzzzzzzzzcc"
         inkscape:path-effect="#path-effect9"
         inkscape:original-d="m 511,807.99686 c 0,0 -16.24741,-14.28009 -24.10447,-23.09411 -7.70664,-8.64528 -15.04448,-19.93936 -18.89553,-26.90589 -7.77727,-14.06904 -8.34168,-19.73453 -9,-29 -0.65833,-9.26547 -0.4159,-16.54487 4.00314,-24.99686 4.41903,-8.452 14.24177,-16.64579 22.04557,-22.64211 7.8038,-5.99632 14.94509,-10.52997 19.95129,-15.35475 5.0062,-4.82478 7.82234,-2.78489 12.99944,0.99944 5.1771,3.78433 13.83493,9.07812 20.54701,14.7994 6.71207,5.72128 12.9425,10.54475 18.81454,18.09927 5.87205,7.55453 8.19584,19.74158 6.86456,27.93964 -1.33128,8.19806 -3.84862,18.94739 -8.56832,27.62979 -4.7197,8.6824 -9.37396,16.44616 -17.59925,27.30376 C 529.92123,791.84812 511,807.99686 511,807.99686 Z"
         transform="translate(-1.2683818,0.32262541)" /></g><g
       inkscape:label="Layer 1"
       id="layer1-3"
       transform="matrix(0.41482589,0,0,0.41482589,58.628536,371.4798)"><path
         d="m 55.666371,109.255 c 0,0 0,-12.918212 8.53525,-26.297793 H 18.75718 c 8.304569,9.688662 8.535251,23.990973 8.535251,26.297793 v 108.42076 c 0,2.07614 -0.230682,16.37844 -8.535251,26.0671 h 45.444441 c -8.53525,-13.37958 -8.53525,-26.29779 -8.53525,-26.29779 z M 221.15902,82.957207 c 5.76705,9.688662 8.07388,17.301183 8.07388,32.295543 v 78.66271 L 152.18497,82.957207 h -31.6035 c 5.53638,9.688662 8.07389,17.301183 8.07389,32.295543 v 96.19457 c 0,14.99437 -2.53751,22.60688 -8.07389,32.29554 h 35.5251 c -5.53638,-9.68866 -8.30456,-17.30117 -8.30456,-32.29554 v -77.27861 l 68.97404,95.73321 c 7.38184,11.7648 18.22391,17.30119 32.06486,16.83982 V 113.86865 c 0,-13.37958 2.53751,-21.222781 8.07388,-30.911443 z m 120.04823,0 11.30344,29.758033 14.07163,-10.84207 c 2.99887,-2.076145 5.99774,-3.229557 9.45798,-3.46024 h 17.76254 v 119.26283 c 0,1.84545 -0.23068,16.37844 -8.76593,25.83642 h 48.21263 c -8.53525,-13.1489 -8.53525,-26.06711 -8.53525,-26.06711 V 98.41293 h 18.22391 c 3.69092,0.230683 6.68979,1.384095 9.45799,3.46024 l 14.30231,10.84207 11.99548,-29.758033 z m 282.44878,0 c 6.22842,8.765933 7.84321,22.376193 7.84321,25.605753 v 82.12294 c 0,14.30232 -2.30683,38.52398 -21.45347,38.52398 -18.4546,0 -41.06147,-11.30345 -41.06147,-39.67738 0,-28.14326 -0.46137,-53.51833 -0.69205,-80.2775 0,0 0,-12.918212 8.30456,-26.297793 h -49.59672 c 8.30456,9.688662 8.30456,24.221653 8.53525,26.067113 v 76.81725 c 0.69205,31.14214 11.07275,60.66949 59.0547,60.66949 50.98082,0 59.97744,-39.67739 59.97744,-56.51721 V 109.255 c 0,0 0,-12.918212 7.8432,-26.297793 z m 194.78912,0 c 5.76706,9.688662 8.07388,17.301183 8.07388,32.295543 v 78.66271 L 749.47111,82.957207 h -31.6035 c 5.53638,9.688662 8.07389,17.301183 8.07389,32.295543 v 96.19457 c 0,14.99437 -2.53751,22.60688 -8.07389,32.29554 h 35.5251 c -5.53639,-9.68866 -8.30457,-17.30117 -8.30457,-32.29554 v -77.27861 l 68.97405,95.73321 c 7.38184,11.7648 18.22391,17.30119 32.06486,16.83982 V 113.86865 c 0,-13.37958 2.5375,-21.222781 8.07388,-30.911443 z M 993.16517,224.8269 c -2.76819,2.07615 -5.76707,3.22956 -9.2273,3.46024 h -34.60236 v -57.6706 h 23.5296 c 0,0 12.91822,0 26.2978,8.53524 v -32.75691 c -9.68867,8.30458 -23.99098,8.53526 -26.06712,8.76595 H 949.33551 V 98.41293 h 34.60236 c 3.46023,0.230683 6.45911,1.384095 9.2273,3.46024 l 14.30223,11.07276 11.5342,-29.988723 H 909.88881 c 8.30456,9.688662 8.53525,23.990973 8.53525,26.067113 v 108.65144 c 0,2.07614 -0.23069,16.37844 -8.53525,26.0671 h 109.11279 l -11.9955,-30.68075 z"
         id="text1"
         style="font-size:229.729px;line-height:0;font-family:Maragsa;-inkscape-font-specification:'Maragsa, Normal';text-align:center;text-anchor:middle;fill:#6b676f;stroke-width:3.92795"
         aria-label="IN TUNE"
         sodipodi:nodetypes="cccsscccccscccssccscccscccccccsccccccccccsssscccccssccccscccssccscccscccccccccccccccccsscccc" /><path
         d="m 190.38277,270.27075 h -0.89198 l -27.05722,59.76375 -27.65188,-59.86285 h -0.89199 l -7.43331,63.62905 c -0.49555,3.86531 -3.66709,6.14487 -7.23507,6.14487 h -1.58578 v 0.9911 h 19.22748 v -0.89199 h -1.58577 c -2.18044,0 -4.06354,-2.08132 -3.86532,-4.26176 l 4.36087,-48.36601 25.37234,54.90732 h 0.89199 c 0.69377,-4.06355 3.36976,-10.10929 3.36976,-10.10929 l 20.91236,-46.2847 4.45997,49.85268 c 0.19823,2.18044 -1.78398,4.26176 -3.86531,4.26176 h -1.58578 v 0.89199 h 21.60613 v -0.9911 h -1.58578 c -3.56797,0 -6.73951,-2.27956 -7.23506,-6.14487 z m 70.56674,1.28844 v 0.99111 h 1.58577 c 2.77511,0 5.15376,2.08132 5.25287,4.85642 v 39.04962 c 0,13.67727 -8.82086,22.79546 -22.10169,22.79546 -12.58704,0 -21.01146,-9.61375 -21.01146,-24.08391 v -37.76117 c 0.0991,-2.7751 2.37865,-4.85642 5.15376,-4.85642 h 1.68488 v -0.99111 h -20.11946 v 0.99111 h 1.58577 c 2.8742,0 5.15376,2.08132 5.25285,4.95553 v 39.14872 c 0,15.46128 11.00129,25.76878 27.45366,25.76878 16.05594,0 26.7599,-10.40661 26.7599,-25.96699 v -39.14873 c 0.0991,-2.77509 2.37865,-4.75731 5.15374,-4.75731 h 1.68489 v -0.99111 z m 40.23893,22.2008 c -3.17154,-2.97331 -3.96444,-6.54131 -3.96444,-9.2173 0,-5.94664 4.85643,-11.39772 12.19063,-11.39772 6.14485,0 11.10038,3.86531 11.10038,10.20839 h 0.99111 v -10.90217 -1.18932 h -3.96442 c -2.67599,-0.59467 -5.84753,-1.09022 -8.52352,-1.09022 -11.29862,0 -17.34436,8.4244 -17.34436,16.7497 0,3.86533 1.28842,8.62263 5.35197,12.28973 l 18.93013,17.6417 c 2.47778,2.37866 3.96444,5.35197 3.96444,9.31641 0,7.82972 -6.04576,12.78527 -13.28083,13.28082 -8.82085,0.39644 -15.36216,-6.04575 -14.37106,-16.35327 h -0.79289 c -1.58576,4.45998 -1.88309,10.80308 -1.18931,13.8755 3.86531,4.06354 11.89327,5.45109 16.7497,5.45109 11.39773,0 18.63281,-7.63152 18.63281,-18.5337 0,-4.06353 -1.09022,-8.42439 -5.05465,-12.09149 z m 57.68245,46.18558 h -1.28844 c -3.46886,0 -6.24397,-2.7751 -6.34308,-6.14487 v -55.00643 c 0.0991,-3.46887 2.97332,-6.24397 6.34308,-6.24397 h 1.28844 v -0.99111 h -21.60614 v 0.99111 h 1.18934 c 3.46889,0 6.34308,2.7751 6.34308,6.24397 v 55.00643 c 0,3.36977 -2.87419,6.14487 -6.34308,6.14487 h -1.18934 v 0.9911 h 21.60614 z m 73.54001,-27.8501 c -2.27954,20.21857 -14.17281,27.25542 -28.24654,27.35454 -16.65059,-0.49555 -27.9492,-13.47905 -27.9492,-33.4003 0,-19.72303 11.10039,-32.90474 28.44476,-32.90474 11.99239,0.0991 21.70524,6.24397 24.67856,17.7408 h 0.79288 l -1.98222,-13.9746 c -5.74841,-3.7662 -13.67726,-6.64042 -23.39012,-6.64042 -21.80434,0 -35.97717,14.47017 -35.97717,35.97719 0,21.90345 14.66838,36.07629 35.38251,36.17539 13.67727,0 22.59724,-6.24398 27.85011,-14.76749 l 1.18933,-15.56037 z m 44.40161,-40.63538 c -4.26178,0 -10.10929,-0.99111 -11.89329,-1.784 v 12.48795 h 0.99111 v -1.784 c 0,-3.17153 2.47776,-5.74842 5.64929,-5.94664 h 18.73193 v 59.46642 c -0.0991,3.36976 -2.87421,6.14486 -6.34308,6.14486 h -1.18933 l -0.0991,0.9911 h 21.70524 v -0.9911 h -1.18933 c -3.46888,0 -6.24398,-2.7751 -6.34309,-6.24398 v -59.3673 h 18.73193 c 3.17154,0.19822 5.64931,2.77511 5.64931,5.94664 v 1.784 h 0.99109 v -12.48795 c -1.88308,0.79289 -7.6315,1.784 -11.89327,1.784 z m 122.00526,69.47658 -0.0991,-0.9911 h -1.18934 c -3.46886,0 -6.34307,-2.7751 -6.34307,-6.14487 v -55.00643 c 0,-3.46887 2.87421,-6.24397 6.34307,-6.24397 h 1.18934 l 0.0991,-0.99111 h -21.70525 v 0.99111 h 1.28845 c 3.36976,0 6.14485,2.7751 6.34309,6.14486 v 26.46256 h -40.63538 v -26.36345 c 0.0991,-3.46887 2.97332,-6.24397 6.34308,-6.24397 h 1.28843 v -0.99111 h -21.60612 v 0.99111 h 1.18932 c 3.46889,0 6.24399,2.7751 6.34309,6.24397 v 55.00643 c 0,3.36977 -2.8742,6.24398 -6.34309,6.24398 h -1.18932 l -0.0991,0.9911 h 21.70523 v -0.9911 h -1.28843 c -3.46888,0 -6.24398,-2.87421 -6.34308,-6.24398 v -25.66965 h 40.63538 v 25.66965 c -0.0991,3.46888 -2.97333,6.24398 -6.34309,6.24398 h -1.28845 v 0.9911 z m 58.67346,-15.95681 h -0.99109 c -3.07243,7.5324 -7.03686,12.9835 -17.54259,12.9835 H 624.6856 v -29.73322 h 16.84882 c 2.67599,0.0991 4.75732,2.27956 4.75732,4.95555 v 1.38754 h 0.9911 v -15.65948 h -0.9911 v 1.48666 c 0,2.67598 -2.18044,4.85642 -4.85643,4.85642 H 624.6856 v -30.62521 h 20.21858 c 3.17155,0.19823 5.55021,2.7751 5.55021,5.94665 v 1.68488 l 0.9911,0.0991 v -8.02797 -1.58576 -2.97332 c -1.78398,0.79288 -7.53241,1.78398 -11.79417,1.78398 H 610.711 v 0.99111 h 1.28844 c 3.27066,0 5.94664,2.57688 6.24397,5.74843 v 55.50197 c 0,3.36977 -2.87422,6.24398 -6.34308,6.24398 H 610.711 v 0.9911 h 41.03183 z m 9.41546,-53.42067 v 0.99111 h 1.18933 c 3.46887,0 6.34308,2.7751 6.34308,6.24397 v 55.00643 c -0.0991,3.46888 -2.87421,6.24398 -6.34308,6.24398 h -1.18933 v 0.9911 h 21.60614 v -0.9911 h -1.28846 c -3.46886,0 -6.24396,-2.87421 -6.34308,-6.24398 v -59.06997 c 1.28844,0 7.33419,-0.19821 12.38884,0 7.33418,0.39645 11.99239,6.14487 12.28972,15.16393 0,2.18044 -0.19822,4.55911 -0.69379,5.94666 -2.77509,8.91996 -10.3075,10.10929 -15.46125,10.3075 -2.97332,0 -5.25285,0 -5.25285,0 v 0.892 c 3.66709,0 6.54129,3.46888 9.11817,6.73952 0.79288,0.892 11.99239,17.14616 13.0826,18.5337 3.07244,3.66709 8.02796,8.62263 17.24526,8.62263 h 5.45109 v -0.9911 c -5.74841,0 -9.4155,-3.07243 -13.47905,-7.43331 -3.76621,-4.16263 -12.38884,-16.45236 -12.38884,-16.45236 -1.8831,-2.676 -4.95553,-5.94665 -7.03686,-6.93775 9.51463,0 16.84881,-9.31641 16.84881,-18.93015 0,-11.49684 -7.43329,-18.63281 -19.42568,-18.63281 z m 93.75866,-1.38754 h -0.892 c 0,2.18043 -3.6671,10.20839 -3.6671,10.20839 l -22.49812,53.42066 c -1.98221,4.36087 -5.64932,6.14487 -8.72173,6.14487 h -0.89201 v 0.9911 h 20.02037 v -0.89199 h -0.892 c -2.57688,0 -5.15376,-2.27955 -3.76621,-6.24398 l 6.64041,-16.94792 h 26.66078 l 6.34309,16.94792 c 1.48665,3.96443 -1.18934,6.24398 -3.76621,6.24398 h -0.892 v 0.89199 h 22.2999 v -0.9911 h -0.79289 c -3.07243,0 -6.73952,-1.784 -8.72173,-6.14487 z m -13.47905,43.70782 12.38883,-31.71543 11.9924,31.71543 z m 54.41173,-42.32028 v 0.99111 h 1.28844 c 3.27065,0 5.94664,2.57688 6.24398,5.74843 v 55.50197 c 0,3.36977 -2.8742,6.24398 -6.34308,6.24398 h -1.18934 v 0.9911 h 21.60614 v -0.9911 h -1.18934 c -3.46886,0 -6.34307,-2.87421 -6.34307,-6.24398 v -59.16908 h 11.39772 c 8.42441,0 13.08262,6.04577 13.37995,15.16394 0,2.18043 -0.19823,4.5591 -0.69377,5.94664 -4.45998,14.17283 -20.71415,10.70396 -20.71415,10.70396 v 0.89199 c 12.38883,6.54132 28.84122,-1.48667 28.84122,-16.55147 0,-11.89329 -7.82975,-19.12838 -20.51592,-19.12838 z m 95.74088,0 v 0.99111 h 1.28849 c 2.67593,0 5.05465,3.27065 3.56793,6.14486 h -0.0991 l -15.75862,27.751 -14.8666,-27.65189 c -1.48665,-2.8742 0.59466,-6.24397 3.46889,-6.24397 h 1.18932 v -0.99111 h -24.28211 v 0.99111 h 1.28843 c 4.16265,0 8.02797,2.7751 10.01018,5.84753 l 18.83102,31.5172 v 23.88567 c -0.0991,3.46888 -2.8742,6.24398 -6.34307,6.24398 h -1.28844 v 0.9911 h 21.70522 v -0.9911 h -1.28842 c -3.46888,0 -6.24398,-2.87421 -6.34309,-6.24398 v -23.78656 l 19.62393,-31.61631 c 2.08127,-3.07243 5.74845,-5.74842 9.91111,-5.74842 h 1.38749 v -1.09022 z"
         id="text2"
         style="font-size:126.855px;line-height:0;font-family:Cinzel;-inkscape-font-specification:'Cinzel, Normal';text-align:center;word-spacing:0px;text-anchor:middle;fill:#3c2358;stroke-width:1.68761"
         aria-label="MUSIC THERAPY" /></g></g></svg>
