<?xml version="1.0" encoding="UTF-8" standalone="no"?>
<svg
   height="1536"
   version="1.2"
   width="1536"
   id="svg8"
   sodipodi:docname="lotus_nobackground_ vector.svg"
   inkscape:version="1.4.2 (ebf0e940, 2025-05-08)"
   xmlns:inkscape="http://www.inkscape.org/namespaces/inkscape"
   xmlns:sodipodi="http://sodipodi.sourceforge.net/DTD/sodipodi-0.dtd"
   xmlns="http://www.w3.org/2000/svg"
   xmlns:svg="http://www.w3.org/2000/svg">
  <sodipodi:namedview
     id="namedview8"
     pagecolor="#ffffff"
     bordercolor="#000000"
     borderopacity="0.25"
     inkscape:showpageshadow="2"
     inkscape:pageopacity="0.0"
     inkscape:pagecheckerboard="0"
     inkscape:deskcolor="#d1d1d1"
     inkscape:zoom="0.32572802"
     inkscape:cx="781.3267"
     inkscape:cy="750.62624"
     inkscape:window-width="1384"
     inkscape:window-height="756"
     inkscape:window-x="42"
     inkscape:window-y="25"
     inkscape:window-maximized="0"
     inkscape:current-layer="svg8" />
  <defs
     id="defs1" />
  <polygon
     fill="black"
     points="1078.0,682.2 1077.0,682.2 1076.8,682.0 1077.0,681.8 1078.0,681.8 1078.2,682.0 1078.0,682.2"
     id="polygon6" />
  <g
     id="g8"
     transform="matrix(1.5356542,0,0,1.5356542,-421.89422,-364.77547)">
    <path
       id="polygon1"
       d="m 829,952.2 c -41.702,-13.98399 -16.83368,-74.64669 -3.60665,-103.94418 21.72639,-43.23496 62.49855,-75.77401 106.74706,-93.82395 21.42888,-9.69924 41.52573,-9.2898 44.68733,-22.33074 -1.14487,-101.52461 -2.28178,-202.34336 -2.79999,-303.84239 -0.78238,-16.27651 -0.78425,-38.54543 0.69233,-56.32692 1.39476,-16.79615 5.9416,-34.19575 18.56414,-40.55631 15.08658,38.66151 44.27688,68.12522 74.62848,95.23597 29.173,30.4924 68.0065,58.21356 71.3605,104.1511 8.6215,49.08837 1.7397,106.11791 -38.2732,140.43742 -16.2179,8.69407 -29.2088,14.7505 -9.7696,-5.18324 21.317,-42.66348 20.6664,-97.40306 -2.4989,-139.19548 -14.7455,-27.79496 -48.1963,-42.6983 -74.2899,-52.17157 -5.526,106.16422 0.557,212.86682 -3.5357,319.077 -8.8848,36.21145 -24.56171,73.78434 -55.63683,96.86075 C 919.22192,920.82381 875.18009,943.92703 829,952.2 Z"
       sodipodi:nodetypes="cccccscccccccccc"
       style="fill:#3e294e;fill-opacity:1" />
    <path
       id="polygon2"
       d="M 768,974.2 C 705.9181,928.52201 667.66844,856.33179 650.75518,782.12212 641.42591,731.51385 641.501,678.95999 647.65294,628.04264 660.23596,562.23251 691.33042,500.39012 730.4029,446.75888 746.6862,426.82345 761.12533,389.51299 791.2,429 c 42.71527,51.17129 77.3996,110.96389 94.14802,175.93869 7.85892,41.04627 10.67356,83.61035 7.78051,125.46737 -8.94813,33.37706 -47.73736,46.21228 -65.22972,74.81771 -30.24645,37.35639 -43.0026,88.14929 -34.5978,135.73909 C 799.38671,964.17497 778.72881,963.32682 768,974.2 Z"
       sodipodi:nodetypes="cccccccccc"
       style="fill:#3e294e;fill-opacity:1" />
    <path
       id="polygon3"
       d="m 721,958.2 c -21.33761,-4.35341 -41.01228,-14.84527 -59.65876,-25.66889 -14.66366,-7.65609 -29.28274,-17.479 -42.20736,-27.97648 C 596.13409,886.53195 575.61023,865.41229 559,841.2 541.58414,815.69334 521.78566,791.24239 507.65727,763.45557 495.51108,736.81674 483.7031,709.16805 476.05608,680.64393 c -6.87237,-22.25816 -8.57958,-45.90798 -10.23646,-69.10974 0.52744,-27.25288 -0.14641,-54.57666 1.64685,-81.72469 1.13999,-9.95952 -0.41075,-19.81202 18.33345,-14.24067 22.94168,8.05916 43.00976,16.83455 63.88222,28.06574 24.5413,15.25583 44.8682,34.01951 63.81544,54.74219 15.36148,15.4759 14.94295,32.55733 12.70242,57.62326 -0.79667,23.26862 -3.62625,46.6576 -1.0473,69.94888 -0.73053,22.60489 4.05429,44.65985 7.77288,66.7767 4.54401,17.44597 9.48016,34.71586 16.08401,51.85329 12.15411,31.31289 28.59045,61.21172 49.93201,86.96517 5.94965,9.5948 15.70915,18.43656 22.0584,26.65594 z"
       sodipodi:nodetypes="ccccccccccccccccc"
       style="fill:#3e294e;fill-opacity:1" />
    <path
       id="polygon4"
       d="m 691,982.2 c -17.09145,-0.77627 -34.52921,-0.1467 -51.22503,-3.56028 C 617.4636,976.1866 595.47231,972.36438 574.12342,966.00898 542.38215,956.99689 510.81298,945.72665 481,932.2 c -27.70269,-14.93815 -51.05179,-36.06534 -74.11236,-57.10374 -14.00146,-14.33749 -29.08807,-27.67249 -40.82338,-43.95572 -17.62303,-22.24332 -30.33508,-48.0486 -41.76412,-74.18349 -6.91904,-16.76943 -14.02316,-34.9186 -18.61539,-52.61642 -4.33342,-14.4938 -12.89336,-31.21911 9.89739,-30.58677 19.16993,-0.86975 37.58285,2.78146 56.00183,7.07789 18.52746,4.46298 36.79156,9.90056 53.52256,18.56461 16.90449,7.94327 34.01708,17.1554 44.48002,33.26926 9.01573,16.98985 16.85886,34.92391 26.81305,51.64815 8.53323,15.81971 19.59405,30.76679 29.75088,45.91385 17.47874,23.34588 35.35658,46.41962 56.81477,66.53763 13.70003,14.65009 29.27881,26.92322 45.70692,38.16028 16.60682,10.66113 33.83102,21.55811 52.36926,29.04493 7.80459,6.43236 34.08151,9.91078 33.69383,15.20745 C 707.06709,982.24248 698.69381,979.91454 691,982.2 Z"
       sodipodi:nodetypes="ccccccccccccccccccc"
       style="fill:#3e294e;fill-opacity:1" />
    <path
       id="polygon5"
       d="m 860,982.2 c -13.97594,-0.62629 -40.59709,1.15992 -42.03918,-6.55034 C 874.77714,962.99495 932.64033,940.91595 975.8,900 c 30.9999,-29.65387 51.9895,-70.72237 55,-114 7.2656,-33.667 38.0676,-53.28317 64.3863,-71.67917 32.7493,-21.77596 70.228,-33.81386 108.7316,-39.3654 17.5314,-2.43688 48.2553,-7.04235 31.7843,19.69195 -14.8314,53.02207 -39.7256,103.6464 -74.8749,146.75891 -31.0413,38.31175 -68.4646,72.68149 -113.3821,94.16139 -34.3322,15.54245 -69.07436,29.26049 -106.20962,36.94252 -25.48651,5.84312 -30.65871,5.93769 -56.34742,9.10786 z"
       sodipodi:nodetypes="cccccccccccc"
       style="fill:#3e294e;fill-opacity:1" />
    <path
       id="polygon7"
       d="m 510,1094.2 c -14.69932,-0.3959 -29.66588,1.3018 -44,-2 -15.30915,-1.2491 -30.24507,-4.5478 -44.77891,-8.9423 -14.44004,-3.261 -27.8108,-8.4391 -41.27025,-14.1219 -12.97635,-5.1851 -25.48001,-10.7034 -37.62403,-17.7125 -11.07891,-7.4825 -28.14148,-13.7829 -33.44338,-24.9524 11.84334,-8.18 21.39419,-19.2946 33.11657,-27.6709 13.34183,-9.35665 25.78788,-20.3144 40.35383,-28.19237 11.05383,-7.74329 24.10483,-13.5525 36.27707,-18.97089 13.03199,-3.5921 26.27177,-12.39143 40.64299,-8.82726 15.97251,6.16499 30.40201,16.10564 46.58997,21.84137 12.71746,4.90887 24.88681,11.0213 38.33614,14.34915 12.7491,4.9139 26.50311,8.25425 39.87814,10.9751 14.57558,3.23824 29.54475,6.48493 44.71199,7.12446 15.22947,3.79174 31.62578,1.84011 47.20987,4.70044 12.33333,0 24.66667,0 37,0 7.09009,-2.00511 29.46217,-6.23152 14.01325,3.5234 C 713.62249,1016.4123 700.038,1026.3215 685,1035.2 c -11.73776,8.3444 -24.54889,14.4538 -37,22 -16.5799,8.3881 -33.13963,15.8465 -50.88537,21.3214 -13.48318,4.344 -27.37501,7.2481 -41.20481,9.7109 -15.04282,3.4556 -31.27498,2.5766 -45.90982,5.9677 z"
       style="fill:#3e294e;fill-opacity:1" />
    <path
       id="polygon8"
       d="m 1049,1094.2 c -16.636,-0.55 -32.7691,-0.2259 -49.84138,-2.0537 -13.61514,-1.4683 -26.58453,-4.8644 -40.15862,-7.9463 -13.17145,-4.2243 -26.9182,-6.8232 -39.65665,-12.8372 -13.57939,-4.2736 -26.52765,-11.1072 -39.01937,-18.0793 -12.6647,-7.5421 -25.65472,-15.2591 -37.56691,-23.1237 -12.20385,-8.1585 -23.64818,-17.4386 -34.90197,-27.2263 -2.92397,-7.04404 15.9638,-1.1401 24.40778,-0.5408 8.44398,0.5993 20.939,-0.3733 34.58803,-1.2888 9.22695,-0.5311 18.9602,-1.0865 27.73932,-2.31463 16.02049,-2.10732 33.13756,-3.41073 48.35832,-7.09204 14.39481,-2.47607 27.80542,-6.78972 42.05755,-10.2118 16.0226,-4.76354 31.3491,-10.66392 46.7049,-17.42071 13.3114,-5.04331 25.8263,-11.54801 39.0314,-17.20538 14.3448,-5.40249 29.2143,0.14473 42.343,5.98452 13.8918,4.63633 27.0322,10.89314 40.0964,17.20689 12.1815,6.97614 24.4346,15.15792 35.7021,23.36036 14.5111,10.08259 27.454,21.74369 40.9378,33.22599 -6.7133,10.1667 -20.2082,15.0725 -29.7693,23.2324 -12.0724,6.4533 -24.7024,13.7026 -38.1471,17.9809 -12.3251,5.3744 -25.8548,9.1196 -38.7532,13.4669 -14.7326,4.0432 -28.9752,7.7302 -43.7895,9.9167 -9.9162,1.4252 -17.7552,2.0503 -30.3626,2.966 z"
       sodipodi:nodetypes="ccccccczccccccccccccccc"
       style="fill:#3e294e;fill-opacity:1" />
  </g>
</svg>
